<svg version="1.1" id="Layer_1" xmlns="http://www.w3.org/2000/svg" xmlns:xlink="http://www.w3.org/1999/xlink" x="0px" y="0px"
	 width="100%" viewBox="0 0 512 534" enable-background="new 0 0 512 534" xml:space="preserve">
<path fill="#FFFFFF" opacity="1.000000" stroke="none" 
	d="
M513.000000,187.000000 
	C513.000000,303.305664 513.000000,419.111328 513.000000,534.958496 
	C342.401794,534.958496 171.803589,534.958496 1.102691,534.958496 
	C1.102691,357.111053 1.102691,179.222015 1.102691,1.166492 
	C171.666534,1.166492 342.333252,1.166492 513.000000,1.166492 
	C513.000000,62.863033 513.000000,124.681519 513.000000,187.000000 
M133.500000,56.004070 
	C124.041245,56.004070 114.582489,56.004070 104.810181,56.004070 
	C104.810181,201.197617 104.810181,345.855835 104.810181,491.100464 
	C112.338112,487.640137 119.256554,484.502930 126.139305,481.289215 
	C171.990097,459.880768 217.858078,438.508636 263.635498,416.944336 
	C267.648407,415.054016 270.855042,415.040192 274.821198,416.892120 
	C321.713348,438.787872 368.672424,460.540344 415.619110,482.319183 
	C424.156372,486.279663 432.717224,490.189301 441.649384,494.298248 
	C441.649384,347.842712 441.649384,202.144913 441.649384,56.004074 
	C339.050537,56.004074 236.775269,56.004074 133.500000,56.004070 
z"/>
<path fill="#F8CE4D" opacity="1.000000" stroke="none" 
	d="
M134.000000,56.004074 
	C236.775269,56.004074 339.050537,56.004074 441.649384,56.004074 
	C441.649384,202.144913 441.649384,347.842712 441.649384,494.298248 
	C432.717224,490.189301 424.156372,486.279663 415.619110,482.319183 
	C368.672424,460.540344 321.713348,438.787872 274.821198,416.892120 
	C270.855042,415.040192 267.648407,415.054016 263.635498,416.944336 
	C217.858078,438.508636 171.990097,459.880768 126.139305,481.289215 
	C119.256554,484.502930 112.338112,487.640137 104.810181,491.100464 
	C104.810181,345.855835 104.810181,201.197617 104.810181,56.004070 
	C114.582489,56.004070 124.041245,56.004070 134.000000,56.004074 
M113.069023,475.557343 
	C114.593208,475.143677 116.117393,474.730011 118.152496,474.325653 
	C118.425697,474.133575 118.698898,473.941498 119.606071,473.735687 
	C120.269302,473.246033 120.932533,472.756409 122.268730,472.157349 
	C125.166031,470.636139 128.063324,469.114929 131.579666,467.623718 
	C132.236374,467.161682 132.893082,466.699677 134.079239,466.184021 
	C134.373245,465.992798 134.667252,465.801575 135.575531,465.660583 
	C136.197891,465.169708 136.820251,464.678864 138.124283,464.064209 
	C150.302811,457.927826 162.505234,451.838287 174.655197,445.645844 
	C205.629837,429.859070 236.560684,413.985992 267.595184,398.318054 
	C269.352478,397.430817 272.291626,397.267639 273.993927,398.127380 
	C307.396149,414.997406 340.678101,432.105347 374.024750,449.085785 
	C392.542297,458.515076 411.133148,467.800354 429.972046,477.543182 
	C430.276520,477.356812 430.581024,477.170471 431.172729,476.086853 
	C431.188995,475.587646 431.219452,475.088409 431.219482,474.589203 
	C431.222198,341.004730 431.223785,207.420258 431.210327,73.835793 
	C431.210175,72.398727 431.011871,70.961678 430.877563,69.137215 
	C429.088654,69.137215 427.618500,69.137100 426.148315,69.137230 
	C324.710754,69.145927 223.273224,69.153374 121.835670,69.171310 
	C119.511024,69.171722 117.186386,69.290565 113.946083,69.449547 
	C113.651344,71.522461 113.099327,73.595299 113.098663,75.668312 
	C113.057800,202.602448 113.059784,329.536621 113.069359,456.470764 
	C113.069824,462.629883 113.173965,468.789001 113.069023,475.557343 
z"/>
<path fill="#3F1514" opacity="1.000000" stroke="none" 
	d="
M134.961258,465.610352 
	C134.667252,465.801575 134.373245,465.992798 133.473877,466.153656 
	C132.232544,466.613434 131.596588,467.103546 130.960617,467.593689 
	C128.063324,469.114929 125.166031,470.636139 121.576767,472.149475 
	C120.247238,472.677551 119.609673,473.213470 118.972107,473.749390 
	C118.698898,473.941498 118.425697,474.133575 117.467651,474.225708 
	C116.202499,474.096649 115.622192,474.067505 115.030960,473.587952 
	C115.014992,467.031525 115.005569,460.925476 115.005524,454.819427 
	C115.004494,328.829498 115.005363,202.839539 114.998428,76.849602 
	C114.998291,74.351120 114.909294,71.852646 114.861755,69.354164 
	C117.186386,69.290565 119.511024,69.171722 121.835670,69.171310 
	C223.273224,69.153374 324.710754,69.145927 426.148315,69.137230 
	C427.618500,69.137100 429.088654,69.137215 430.877563,69.137215 
	C431.011871,70.961678 431.210175,72.398727 431.210327,73.835793 
	C431.223785,207.420258 431.222198,341.004730 431.219482,474.589203 
	C431.219452,475.088409 431.188995,475.587646 430.727783,476.557495 
	C430.085541,477.068909 429.888275,477.109711 429.690979,477.150543 
	C411.133148,467.800354 392.542297,458.515076 374.024750,449.085785 
	C340.678101,432.105347 307.396149,414.997406 273.993927,398.127380 
	C272.291626,397.267639 269.352478,397.430817 267.595184,398.318054 
	C236.560684,413.985992 205.629837,429.859070 174.655197,445.645844 
	C162.505234,451.838287 150.302811,457.927826 137.451385,464.084045 
	C136.172745,464.606018 135.567001,465.108185 134.961258,465.610352 
M424.712616,76.421509 
	C423.074066,76.260330 421.435547,75.958450 419.796967,75.958076 
	C321.267914,75.935646 222.738892,75.933098 124.209862,75.978081 
	C122.482651,75.978874 120.755714,76.579544 119.054153,77.849884 
	C119.065651,203.455429 119.078346,329.060974 119.082428,454.666504 
	C119.082542,458.162231 118.990395,461.657928 119.043556,465.821930 
	C121.617165,468.038269 122.890854,466.323059 124.568382,463.731171 
	C127.298111,462.451508 130.027832,461.171844 133.362350,459.947388 
	C133.924820,459.485718 134.487274,459.024017 135.627365,458.102264 
	C138.630142,456.681976 141.632919,455.261688 145.254013,453.919617 
	C145.852310,453.476746 146.450607,453.033875 147.446915,452.163330 
	C147.812469,452.045441 148.178009,451.927582 149.304810,451.897430 
	C151.215469,450.714539 153.126114,449.531616 155.617188,447.926025 
	C160.953278,445.205994 166.289917,442.487030 171.625397,439.765808 
	C203.779709,423.366150 235.919815,406.938446 268.132416,390.654114 
	C269.621429,389.901367 272.108398,389.741974 273.542938,390.467743 
	C297.733643,402.706482 321.830872,415.129852 346.122986,428.166962 
	C347.515137,428.733673 348.907318,429.300385 350.702545,429.925781 
	C350.702545,429.925781 350.973907,430.229523 351.124634,430.900299 
	C352.139343,431.241058 353.154053,431.581818 354.833038,431.997131 
	C356.216614,432.706635 357.600159,433.416138 359.142853,434.839935 
	C359.981384,435.116974 360.819916,435.394012 362.324310,435.753143 
	C364.540314,436.920074 366.756348,438.087036 369.147644,439.933228 
	C369.966064,440.197845 370.784515,440.462494 372.225647,440.809814 
	C373.139557,441.306519 374.053467,441.803223 375.116394,442.948700 
	C377.918671,444.226379 380.720947,445.504028 384.066345,446.827087 
	C384.363861,447.026886 384.661346,447.226685 385.158295,448.050964 
	C385.935120,448.298309 386.711914,448.545685 388.036102,448.882507 
	C388.342529,449.083649 388.648987,449.284760 389.149933,450.098724 
	C391.900177,451.342621 394.650391,452.586487 398.063385,453.978302 
	C400.702911,455.365082 403.342407,456.751862 406.123962,458.837036 
	C407.167053,459.187042 408.210114,459.537048 409.859558,459.980652 
	C410.565369,460.384918 411.271179,460.789185 412.151367,461.893066 
	C412.989227,462.149231 413.827057,462.405396 415.274109,462.765228 
	C416.174133,463.252686 417.074127,463.740112 418.138245,464.910156 
	C418.951019,465.189606 419.763794,465.469055 421.104767,465.744659 
	C421.390747,465.938324 421.676727,466.131989 422.035217,466.834656 
	C422.659454,466.993225 423.283691,467.151794 424.679504,466.820770 
	C424.838959,463.850433 425.137360,460.880096 425.137909,457.909729 
	C425.161407,333.392670 425.156769,208.875595 425.170837,84.358536 
	C425.171082,82.205482 425.357208,80.052437 425.862122,77.866791 
	C425.702972,77.581223 425.543823,77.295662 424.712616,76.421509 
z"/>
<path fill="#2F060B" opacity="1.000000" stroke="none" 
	d="
M114.403915,69.401855 
	C114.909294,71.852646 114.998291,74.351120 114.998428,76.849602 
	C115.005363,202.839539 115.004494,328.829498 115.005524,454.819427 
	C115.005569,460.925476 115.014992,467.031525 114.879730,473.810547 
	C114.236221,474.638397 113.733025,474.793274 113.229828,474.948120 
	C113.173965,468.789001 113.069824,462.629883 113.069359,456.470764 
	C113.059784,329.536621 113.057800,202.602448 113.098663,75.668312 
	C113.099327,73.595299 113.651344,71.522461 114.403915,69.401855 
z"/>
<path fill="#4F261D" opacity="1.000000" stroke="none" 
	d="
M113.149429,475.252747 
	C113.733025,474.793274 114.236221,474.638397 114.890648,474.260956 
	C115.622192,474.067505 116.202499,474.096649 117.212196,474.221069 
	C116.117393,474.730011 114.593208,475.143677 113.149429,475.252747 
z"/>
<path fill="#4F261D" opacity="1.000000" stroke="none" 
	d="
M135.268402,465.635468 
	C135.567001,465.108185 136.172745,464.606018 137.110535,464.145935 
	C136.820251,464.678864 136.197891,465.169708 135.268402,465.635468 
z"/>
<path fill="#4F261D" opacity="1.000000" stroke="none" 
	d="
M131.270142,467.608704 
	C131.596588,467.103546 132.232544,466.613434 133.209137,466.180481 
	C132.893082,466.699677 132.236374,467.161682 131.270142,467.608704 
z"/>
<path fill="#4F261D" opacity="1.000000" stroke="none" 
	d="
M119.289093,473.742554 
	C119.609673,473.213470 120.247238,472.677551 121.240280,472.204224 
	C120.932533,472.756409 120.269302,473.246033 119.289093,473.742554 
z"/>
<path fill="#4F261D" opacity="1.000000" stroke="none" 
	d="
M429.831512,477.346863 
	C429.888275,477.109711 430.085541,477.068909 430.584167,477.006104 
	C430.581024,477.170471 430.276520,477.356812 429.831512,477.346863 
z"/>
<path fill="#FAD04C" opacity="1.000000" stroke="none" 
	d="
M350.973907,430.229523 
	C350.973907,430.229523 350.702545,429.925781 350.346649,429.611450 
	C348.643463,428.702179 347.296143,428.107239 345.948853,427.512299 
	C321.830872,415.129852 297.733643,402.706482 273.542938,390.467743 
	C272.108398,389.741974 269.621429,389.901367 268.132416,390.654114 
	C235.919815,406.938446 203.779709,423.366150 171.625397,439.765808 
	C166.289917,442.487030 160.953278,445.205994 154.987610,448.151855 
	C152.419876,449.521698 150.481720,450.665680 148.543564,451.809692 
	C148.178009,451.927582 147.812469,452.045441 146.954102,452.336121 
	C145.852753,452.953064 145.244232,453.397247 144.635696,453.841400 
	C141.632919,455.261688 138.630142,456.681976 135.049286,458.285248 
	C133.900009,458.942902 133.328796,459.417572 132.757568,459.892212 
	C130.027832,461.171844 127.298111,462.451508 123.919891,463.999817 
	C121.828026,464.563538 120.384644,464.858582 118.941269,465.153625 
	C118.990395,461.657928 119.082542,458.162231 119.082428,454.666504 
	C119.078346,329.060974 119.065651,203.455429 119.281708,77.393936 
	C119.509270,76.937988 119.977554,77.057716 120.285767,77.340256 
	C122.574226,77.748535 124.554451,77.983856 126.534714,77.984283 
	C226.016708,78.006012 325.498718,78.007652 425.090271,77.943619 
	C425.199860,77.875755 425.456573,77.899391 425.456573,77.899391 
	C425.357208,80.052437 425.171082,82.205482 425.170837,84.358536 
	C425.156769,208.875595 425.161407,333.392670 425.137909,457.909729 
	C425.137360,460.880096 424.838959,463.850433 424.131500,466.822144 
	C423.043243,466.657593 422.502960,466.491638 421.962708,466.325653 
	C421.676727,466.131989 421.390747,465.938324 420.662720,465.481049 
	C419.471832,464.887482 418.722992,464.557495 417.974152,464.227539 
	C417.074127,463.740112 416.174133,463.252686 414.773743,462.459656 
	C413.507874,461.833862 412.742432,461.513672 411.976990,461.193481 
	C411.271179,460.789185 410.565369,460.384918 409.412903,459.637146 
	C407.971497,458.908661 406.976715,458.523651 405.981934,458.138641 
	C403.342407,456.751862 400.702911,455.365082 397.563477,453.604492 
	C394.360840,451.982422 391.658142,450.734161 388.955414,449.485901 
	C388.648987,449.284760 388.342529,449.083649 387.612213,448.567383 
	C386.445190,447.977020 385.702026,447.701752 384.958862,447.426453 
	C384.661346,447.226685 384.363861,447.026886 383.574127,446.533966 
	C380.377075,444.927216 377.672241,443.613586 374.967407,442.299957 
	C374.053467,441.803223 373.139557,441.306519 371.728760,440.509399 
	C370.478699,439.890625 369.725525,439.572296 368.972351,439.253967 
	C366.756348,438.087036 364.540314,436.920074 361.798584,435.453400 
	C360.509796,434.811005 359.746765,434.468323 358.983704,434.125641 
	C357.600159,433.416138 356.216614,432.706635 354.345398,431.679260 
	C352.896454,430.984070 351.935181,430.606812 350.973907,430.229523 
M268.129761,139.570923 
	C268.723633,140.096649 269.317505,140.622375 270.201721,141.673279 
	C270.829163,142.433289 271.456635,143.193298 272.034607,144.737640 
	C272.178558,148.468750 274.234344,149.959976 277.837311,149.983200 
	C279.958496,149.996841 282.077057,150.421570 284.239319,150.788177 
	C284.239319,150.788177 284.367126,150.827560 284.277466,151.588882 
	C284.769012,154.362732 285.247162,157.139053 285.758453,159.909256 
	C285.972687,161.069748 286.257233,162.217270 286.509796,163.370682 
	C287.761200,162.859131 289.418884,162.691635 290.193817,161.776581 
	C293.584015,157.773254 291.957458,150.149948 287.187927,146.824692 
	C287.187927,146.824692 287.177277,146.804794 287.058838,146.116089 
	C284.620850,142.168716 281.004913,141.495514 276.412750,142.161194 
	C276.412750,142.161194 275.949005,142.037811 275.766937,141.387253 
	C274.126068,139.277756 272.485229,137.168259 270.846313,134.377106 
	C269.206482,133.000015 267.566650,131.622940 265.270355,130.078690 
	C264.824860,130.116074 264.379364,130.153442 263.022064,130.063431 
	C257.377106,130.750687 251.732162,131.437927 245.357727,132.105606 
	C235.870911,138.646820 224.995956,141.897018 214.106476,144.961823 
	C204.709732,147.606506 199.765396,154.535934 197.496185,163.013474 
	C195.173950,171.689209 199.037277,179.233902 205.428558,185.245468 
	C206.876770,186.607635 209.130310,187.113571 211.288116,188.295807 
	C211.288116,188.295807 211.601288,188.535599 211.677017,189.172546 
	C212.483124,189.728088 213.289246,190.283646 214.078583,190.923996 
	C214.078583,190.923996 214.164337,190.913132 214.103104,191.832855 
	C214.618149,196.868988 213.068146,202.410141 217.683899,206.968582 
	C217.767197,207.306702 217.850494,207.644821 217.591904,208.365173 
	C217.922882,209.076706 218.253876,209.788223 218.647217,211.130676 
	C218.870926,211.718597 219.094635,212.306534 219.233109,213.526855 
	C219.821426,214.026184 220.409729,214.525497 221.162674,215.682724 
	C221.383972,216.321213 221.605270,216.959702 221.453873,218.211441 
	C222.050720,218.720230 222.647583,219.229019 223.585281,220.343033 
	C225.766006,223.182098 227.946732,226.021149 230.015579,229.448196 
	C230.683929,229.615433 231.352280,229.782684 232.551819,230.148499 
	C232.904633,230.284210 233.257462,230.419907 233.757477,231.226028 
	C236.428009,234.036591 238.512192,233.419739 240.782471,229.910568 
	C242.913239,227.953644 245.044022,225.996704 247.849609,223.869720 
	C247.928955,223.091476 248.008301,222.313248 248.408798,221.403061 
	C248.408798,221.403061 248.544617,221.083511 249.196976,221.343658 
	C250.796036,219.561142 252.395081,217.778610 254.674210,215.895447 
	C255.139008,214.952286 255.603806,214.009140 256.014374,212.998901 
	C256.014374,212.998901 256.076721,213.064545 256.789642,213.001007 
	C258.082397,212.022125 259.631531,211.240921 260.586853,210.001892 
	C261.352722,209.008575 261.397980,207.459656 261.763062,206.157303 
	C260.443268,205.806213 258.462158,204.729095 257.915619,205.226913 
	C255.233047,207.670334 252.931900,210.532501 250.414276,213.416733 
	C250.414276,213.416733 250.269440,213.537567 249.573593,213.287048 
	C249.060486,214.200806 248.547379,215.114563 247.662781,216.597595 
	C246.520309,217.777969 245.559219,219.263916 244.196304,220.072906 
	C241.630966,221.595688 238.833817,222.727966 236.133041,224.022583 
	C235.064392,220.892242 233.949814,217.776154 232.970627,214.618073 
	C232.800308,214.068802 233.171371,213.334244 233.343369,212.699066 
	C234.497314,208.437439 235.665070,204.179520 237.129791,199.371231 
	C237.725525,198.547623 238.321243,197.723999 239.590546,196.843124 
	C241.802856,194.636002 244.015182,192.428879 246.680634,190.213120 
	C246.680634,190.213120 247.124451,190.121323 247.808517,190.091766 
	C248.536789,189.391159 249.265076,188.690536 250.555420,187.811035 
	C250.929459,187.689621 251.303497,187.568207 252.488037,187.754532 
	C255.388275,186.606354 258.288513,185.458191 262.031372,184.201752 
	C264.298370,184.225266 266.565399,184.248764 269.066681,184.891037 
	C271.042328,185.306778 273.017944,185.722519 275.671570,186.140884 
	C276.118561,186.093994 276.565552,186.047119 277.492950,186.311447 
	C278.044250,186.813370 278.595581,187.315277 279.038696,188.665466 
	C278.827637,190.899414 278.616577,193.133347 278.280792,196.687332 
	C281.271698,195.339020 284.634094,194.883606 285.442810,193.200897 
	C286.552673,190.891678 286.341156,187.472351 285.576355,184.856003 
	C284.593079,181.492432 282.639069,178.370438 280.818237,175.314163 
	C280.061798,174.044418 278.568909,173.213394 277.410889,172.182877 
	C276.615356,173.429977 275.706329,174.621323 275.058350,175.940857 
	C274.486481,177.105423 274.205841,178.412994 273.272919,179.683456 
	C272.928345,179.629120 272.583801,179.574783 271.832062,178.873917 
	C266.146729,178.801453 260.458832,178.622299 254.778610,178.759842 
	C253.813660,178.783218 252.881653,180.165894 251.400955,181.103745 
	C251.048172,181.233841 250.695374,181.363937 249.601379,181.259583 
	C246.680435,183.443085 243.759476,185.626587 240.712341,188.347687 
	C240.754517,188.526871 240.796677,188.706039 240.307617,189.171204 
	C239.386673,189.924225 238.465729,190.677246 236.743393,191.235703 
	C236.337555,192.024933 235.931732,192.814163 235.285187,194.160080 
	C234.542099,195.117752 233.799011,196.075409 232.346588,197.085205 
	C231.727280,198.183578 231.107971,199.281937 230.232086,201.078812 
	C229.175064,204.064407 228.118057,207.050003 226.295853,210.086914 
	C225.535568,210.049454 224.775299,210.011993 223.868851,209.322327 
	C223.288040,207.888870 222.707230,206.455399 222.520065,204.465851 
	C221.410675,201.229996 220.301285,197.994125 219.182480,194.169495 
	C219.125412,193.781342 219.068344,193.393188 219.461151,192.533737 
	C219.208740,191.377823 218.956329,190.221924 218.772751,188.329025 
	C218.654709,187.604401 218.536652,186.879776 218.785812,185.253159 
	C218.579041,179.669891 220.080948,173.884369 217.637650,168.565811 
	C217.037369,168.542297 216.437088,168.518768 215.836807,168.495255 
	C215.138718,172.931366 214.440613,177.367493 213.111771,181.792862 
	C212.721344,181.927887 212.330917,182.062912 211.348938,181.908920 
	C209.796478,180.663254 208.244019,179.417587 206.762619,177.416473 
	C199.564270,165.572800 204.623230,153.535629 218.012787,150.449997 
	C222.675644,149.375443 227.310120,148.132996 231.872513,146.697021 
	C233.083298,146.315933 233.978775,144.933044 235.710327,143.946747 
	C236.379028,143.769241 237.047714,143.591751 238.379913,143.712265 
	C239.916443,142.791641 241.452988,141.871033 243.691055,140.954147 
	C244.409454,140.249237 245.127853,139.544327 246.428894,138.452164 
	C247.488937,137.983139 248.548981,137.514114 250.380493,137.510361 
	C254.594666,136.990448 258.808838,136.470551 263.614838,136.142776 
	C264.386261,136.445328 265.157654,136.747879 265.986694,137.691971 
	C266.681915,138.090378 267.377167,138.488785 268.026154,138.973465 
	C268.026154,138.973465 268.114441,138.931168 268.129761,139.570923 
M265.383820,231.075577 
	C263.597473,232.396683 261.811157,233.717773 259.455078,235.203598 
	C259.081360,235.332031 258.707611,235.460480 257.642303,235.316071 
	C255.742722,236.855698 253.843155,238.395325 251.515030,240.272369 
	C251.084717,240.607788 250.654404,240.943192 249.271835,241.119507 
	C238.531540,241.431778 227.775040,241.491287 217.058701,242.177628 
	C212.616638,242.462143 207.993484,243.583069 205.339096,247.127808 
	C208.235947,248.959000 210.552750,250.423508 212.079163,251.923248 
	C210.766617,252.075638 209.454071,252.228027 207.506531,252.220978 
	C206.982773,252.798386 206.459030,253.375793 205.245087,254.242538 
	C203.547485,254.663788 201.849899,255.085052 199.573761,255.180023 
	C199.155273,255.052185 198.736786,254.924347 197.990143,254.713058 
	C197.990143,254.713058 197.767532,254.968170 197.885513,254.241013 
	C197.887024,253.503998 197.888535,252.766968 198.465790,251.678253 
	C198.105988,250.808563 197.746185,249.938858 197.386383,249.069168 
	C196.551117,249.526062 195.715851,249.982956 194.247269,250.576004 
	C193.873245,250.789444 193.499222,251.002884 192.404053,251.063919 
	C189.872147,252.798172 186.723862,254.088409 185.036438,256.430969 
	C184.002121,257.866821 185.207077,260.915710 185.406433,263.240234 
	C186.684113,262.385223 187.923752,261.464081 189.253403,260.699432 
	C190.081696,260.223145 191.046021,259.983429 192.287979,260.290649 
	C193.858185,260.861542 195.428391,261.432434 197.465469,262.599335 
	C199.309204,262.352997 201.288284,262.452148 202.970337,261.793121 
	C207.374802,260.067505 211.649597,258.010834 216.457581,256.561066 
	C220.896484,254.568787 225.297424,252.484818 229.791077,250.624802 
	C231.891296,249.755463 234.170776,249.319199 237.340286,248.407196 
	C235.295105,251.613113 234.188309,253.348068 233.073349,255.053513 
	C233.073349,255.053513 233.085144,255.078201 232.385300,255.084305 
	C231.254257,256.388458 230.123215,257.692627 228.657364,259.571289 
	C224.708542,263.658081 220.759705,267.744904 216.114365,271.878601 
	C215.347610,272.857208 214.580856,273.835815 213.544052,275.214905 
	C213.339737,275.467590 213.100876,275.681793 212.124985,275.953491 
	C210.278198,278.634155 208.431412,281.314789 205.863037,285.042847 
	C201.670334,286.048035 197.329681,295.459503 199.567719,301.799011 
	C201.322052,306.768433 202.684616,307.258636 206.909958,304.940338 
	C206.605118,302.173889 206.325470,299.635986 206.045807,297.098053 
	C206.480881,296.920807 206.915970,296.743561 207.351044,296.566315 
	C209.401566,298.008942 211.452072,299.451569 214.493454,301.591339 
	C217.522217,296.436035 220.288620,291.727295 223.622284,286.646210 
	C225.736084,283.419525 227.849899,280.192871 230.646011,276.914032 
	C230.969009,276.189423 231.291992,275.464813 231.837280,274.170502 
	C232.272644,273.483643 232.708023,272.796814 233.813889,271.951538 
	C235.021576,270.002686 236.229248,268.053864 237.436935,266.105011 
	C236.953094,265.725372 236.469238,265.345734 235.985397,264.966095 
	C234.962616,265.774750 233.939850,266.583435 232.251724,267.384460 
	C231.834106,267.516632 231.416489,267.648834 230.998505,266.988831 
	C233.000351,264.656952 234.902420,262.229279 237.027237,260.015442 
	C240.283310,256.622894 243.692780,253.377579 247.412399,249.502426 
	C249.585129,248.225662 251.757858,246.948914 253.933578,246.501770 
	C254.479080,247.882278 255.024582,249.262787 255.570084,250.643311 
	C256.408417,250.235962 257.246765,249.828613 258.883087,249.248260 
	C261.251556,249.558975 263.620056,249.869690 266.333466,250.765778 
	C267.226166,250.838455 268.118835,250.911133 268.959167,251.077072 
	C268.959167,251.077072 268.908142,251.171097 269.094666,251.900696 
	C272.046814,255.278961 275.503021,254.300247 279.858521,253.125961 
	C282.147247,253.196655 284.435974,253.267365 287.043030,253.940643 
	C292.327881,256.914490 297.394745,260.413239 302.955566,262.722534 
	C309.185608,265.309692 315.929993,266.628082 322.322845,268.863800 
	C326.927460,270.474152 330.653961,269.348389 334.777283,266.327637 
	C335.184662,266.265076 335.592041,266.202545 336.431427,266.632568 
	C338.929535,265.054810 341.427643,263.477051 344.313110,261.494171 
	C344.875061,261.003052 345.436981,260.511932 346.697998,260.042847 
	C349.053986,256.986664 351.409973,253.930450 353.887085,250.031021 
	C353.826965,247.771423 353.766846,245.511841 353.831757,242.546921 
	C350.393188,240.184418 346.954620,237.821915 342.997711,235.103302 
	C341.028503,241.365860 344.467163,243.220505 347.750732,245.920731 
	C347.480652,247.258377 347.210541,248.596008 346.249359,249.998016 
	C345.320251,251.433899 344.391144,252.869781 343.396210,254.385193 
	C343.396210,254.385193 343.315033,254.449036 342.614594,254.261444 
	C342.145355,254.399673 341.544830,254.398010 341.226318,254.696884 
	C335.556641,260.017242 328.763123,262.005249 321.198669,261.030487 
	C319.383728,260.796600 316.988037,259.567810 316.190491,258.082062 
	C314.516632,254.963730 313.726654,251.370926 312.770172,247.415604 
	C313.356079,246.637192 313.941986,245.858780 315.241852,245.229568 
	C320.093750,243.059875 324.945618,240.890182 329.797516,238.720505 
	C329.746094,238.022430 329.694702,237.324356 329.643280,236.626282 
	C326.730957,236.220612 323.436401,234.744614 320.981964,235.621109 
	C314.959625,237.771729 309.047424,240.646484 305.345215,247.114731 
	C304.266571,248.019089 303.187927,248.923431 301.863037,249.075500 
	C301.294403,248.805374 300.729187,248.308243 300.156586,248.299530 
	C292.877014,248.188889 285.560242,248.834351 278.629669,245.458206 
	C277.177551,244.750854 274.891571,245.755264 272.162109,245.913513 
	C270.512024,245.827774 268.861969,245.742020 267.075531,244.925323 
	C267.753387,243.417603 268.151733,241.681366 269.162140,240.445541 
	C272.045471,236.918884 275.177734,233.595749 278.787170,230.106842 
	C279.159485,229.996140 279.531769,229.885452 280.674713,229.925186 
	C282.157227,229.331924 283.614349,228.661987 285.127594,228.161621 
	C288.118195,227.172775 291.081207,223.875854 294.221008,228.090805 
	C294.624603,228.632568 296.233734,228.840866 296.874207,228.478516 
	C297.481476,228.134964 297.990387,226.701660 297.768341,225.988724 
	C297.215210,224.212830 296.221558,222.574158 295.273376,220.328430 
	C294.990234,219.867279 294.707092,219.406143 294.280090,218.271240 
	C294.070099,217.615753 293.860107,216.960266 293.833679,215.534393 
	C294.569977,213.708282 295.306274,211.882172 296.541016,209.709564 
	C297.304047,209.067230 298.067047,208.424881 299.553955,207.904861 
	C300.219086,208.390823 301.350128,208.791275 301.458099,209.379532 
	C301.732635,210.874954 301.549377,212.454407 301.549377,213.970047 
	C301.961975,216.403839 301.607758,219.400208 302.835419,220.348343 
	C304.617188,221.724411 307.398224,221.318817 308.231354,217.621384 
	C308.386261,217.359787 308.492462,217.079712 309.200775,216.555008 
	C310.273407,216.145660 311.346039,215.736328 313.148529,215.734039 
	C314.259705,216.793198 315.370850,217.852356 317.214874,219.610062 
	C318.895325,217.199173 320.399719,215.040802 322.408722,212.487564 
	C323.914642,210.638596 325.420593,208.789627 327.632172,206.895584 
	C328.644623,205.681564 330.080750,204.614166 330.564240,203.217087 
	C331.193848,201.397873 331.661255,198.859619 327.339996,200.056244 
	C326.274994,200.675980 325.210022,201.295715 323.964600,201.207870 
	C324.718811,199.205612 325.429413,197.185547 326.238342,195.205658 
	C327.225922,192.788483 328.296112,190.405075 329.656097,187.252426 
	C322.179657,186.905045 320.840424,192.472961 316.869080,195.954010 
	C315.968384,195.922195 315.067657,195.890381 314.682312,195.279022 
	C315.900543,192.523590 317.118774,189.768158 318.337006,187.012726 
	C317.576508,186.540100 316.815979,186.067459 316.055450,185.594818 
	C313.340027,188.699615 310.624573,191.804398 307.331909,195.071564 
	C306.762939,195.600540 306.194000,196.129501 304.992065,196.905106 
	C302.248657,199.220169 299.505219,201.535217 296.391479,204.026611 
	C296.391479,204.026611 296.097626,204.312790 295.416809,204.243591 
	C294.202240,205.114319 292.987671,205.985046 291.284760,207.110397 
	C290.881683,207.484741 290.478577,207.859085 289.322571,208.136734 
	C283.620880,209.882980 282.936157,211.292496 286.206573,215.655533 
	C286.694458,216.321136 287.182312,216.986740 287.317596,218.337402 
	C286.155365,219.732666 284.993103,221.127914 283.140167,222.755051 
	C280.183136,223.952271 277.226105,225.149490 273.537689,226.190750 
	C271.669037,227.433273 269.800385,228.675797 267.568451,230.345108 
	C267.089172,230.629379 266.609894,230.913651 265.383820,231.075577 
M281.504456,374.070099 
	C287.834167,374.056152 294.170654,374.224457 300.492157,373.989502 
	C312.832489,373.530762 321.132660,366.348267 323.288483,354.272400 
	C325.398560,342.452850 321.893250,332.932892 311.029205,326.742035 
	C320.357239,319.841797 323.258667,310.463898 319.783905,299.121643 
	C316.814178,289.427765 310.347107,285.081696 298.329041,284.952972 
	C288.502319,284.847748 278.673553,284.922852 268.845825,284.949860 
	C268.234955,284.951538 267.624878,285.231293 266.858215,285.420197 
	C266.971405,287.033997 267.072601,288.477173 267.169434,289.857788 
	C274.442902,290.825745 275.011047,291.344330 275.027069,298.342957 
	C275.075134,319.330963 274.965546,340.319550 275.081726,361.307007 
	C275.108673,366.171173 273.503387,369.001709 268.291412,368.966064 
	C267.879517,368.963257 267.465271,369.306000 266.881317,369.563446 
	C266.981537,371.050323 267.075806,372.448700 267.185120,374.070099 
	C271.880554,374.070099 276.194061,374.070099 281.504456,374.070099 
M238.370544,322.499878 
	C238.299484,334.817383 238.250961,347.135101 238.132660,359.452148 
	C238.115250,361.264679 237.980026,363.130005 237.522552,364.871948 
	C236.807571,367.594360 234.649719,368.998383 232.275772,367.510254 
	C231.072815,366.756195 230.468124,364.134064 230.567612,362.412842 
	C230.754242,359.184021 232.233780,355.971954 232.102356,352.797363 
	C231.936340,348.787567 230.047455,345.104828 225.302231,344.985443 
	C220.494919,344.864532 218.910583,348.635834 218.074829,352.526733 
	C215.910553,362.602570 222.322174,373.496979 231.539307,375.679657 
	C241.162415,377.958496 250.599289,371.917694 253.024963,361.149689 
	C254.327209,355.368866 254.691589,349.293579 254.786377,343.340179 
	C255.030151,328.029114 254.964722,312.711365 254.854355,297.397491 
	C254.819061,292.499481 256.505768,289.720154 261.777863,290.000275 
	C262.175446,290.021393 262.594574,289.637146 263.183289,289.355408 
	C263.050964,287.892120 262.925110,286.500458 262.811676,285.246094 
	C251.510391,285.246094 240.610825,285.246094 229.404556,285.246094 
	C229.513138,287.006714 229.599960,288.414429 229.683075,289.762115 
	C237.713699,290.524475 238.244049,291.069214 238.318542,299.027405 
	C238.388657,306.517700 238.357376,314.009003 238.370544,322.499878 
M252.144104,153.460922 
	C247.079376,154.026596 240.873718,150.890778 237.352142,157.532532 
	C238.020309,158.102432 238.246445,158.466614 238.502930,158.489410 
	C249.288849,159.447769 260.073792,160.427109 270.873169,161.204727 
	C271.692993,161.263763 273.445953,159.711533 273.346100,159.169861 
	C272.975586,157.159988 272.458893,154.807846 271.114258,153.474625 
	C270.194550,152.562729 267.806396,153.008224 266.080688,153.057144 
	C261.737122,153.180267 257.396912,153.422516 252.144104,153.460922 
z"/>
<path fill="#4F261D" opacity="1.000000" stroke="none" 
	d="
M119.977554,77.057716 
	C119.977554,77.057716 119.509270,76.937988 119.268959,76.919144 
	C120.755714,76.579544 122.482651,75.978874 124.209862,75.978081 
	C222.738892,75.933098 321.267914,75.935646 419.796967,75.958076 
	C421.435547,75.958450 423.074066,76.260330 424.960815,76.747513 
	C425.209015,77.073517 425.043488,76.987122 424.584778,76.866653 
	C323.725586,76.726677 223.325134,76.706108 122.924675,76.702995 
	C121.942299,76.702965 120.959930,76.934364 119.977554,77.057716 
z"/>
<path fill="#4F261D" opacity="1.000000" stroke="none" 
	d="
M389.052673,449.792297 
	C391.658142,450.734161 394.360840,451.982422 397.232117,453.530518 
	C394.650391,452.586487 391.900177,451.342621 389.052673,449.792297 
z"/>
<path fill="#4F261D" opacity="1.000000" stroke="none" 
	d="
M375.041901,442.624329 
	C377.672241,443.613586 380.377075,444.927216 383.302551,446.511261 
	C380.720947,445.504028 377.918671,444.226379 375.041901,442.624329 
z"/>
<path fill="#4F261D" opacity="1.000000" stroke="none" 
	d="
M148.924194,451.853577 
	C150.481720,450.665680 152.419876,449.521698 154.697388,448.363220 
	C153.126114,449.531616 151.215469,450.714539 148.924194,451.853577 
z"/>
<path fill="#4F261D" opacity="1.000000" stroke="none" 
	d="
M118.992416,465.487793 
	C120.384644,464.858582 121.828026,464.563538 123.646576,464.222229 
	C122.890854,466.323059 121.617165,468.038269 118.992416,465.487793 
z"/>
<path fill="#4F261D" opacity="1.000000" stroke="none" 
	d="
M346.035919,427.839630 
	C347.296143,428.107239 348.643463,428.702179 350.145142,429.582092 
	C348.907318,429.300385 347.515137,428.733673 346.035919,427.839630 
z"/>
<path fill="#4F261D" opacity="1.000000" stroke="none" 
	d="
M406.052948,458.487854 
	C406.976715,458.523651 407.971497,458.908661 409.109741,459.590332 
	C408.210114,459.537048 407.167053,459.187042 406.052948,458.487854 
z"/>
<path fill="#4F261D" opacity="1.000000" stroke="none" 
	d="
M351.049255,430.564911 
	C351.935181,430.606812 352.896454,430.984070 354.013245,431.641968 
	C353.154053,431.581818 352.139343,431.241058 351.049255,430.564911 
z"/>
<path fill="#4F261D" opacity="1.000000" stroke="none" 
	d="
M385.058594,447.738708 
	C385.702026,447.701752 386.445190,447.977020 387.338531,448.522644 
	C386.711914,448.545685 385.935120,448.298309 385.058594,447.738708 
z"/>
<path fill="#4F261D" opacity="1.000000" stroke="none" 
	d="
M144.944855,453.880493 
	C145.244232,453.397247 145.852753,452.953064 146.755096,452.549957 
	C146.450607,453.033875 145.852310,453.476746 144.944855,453.880493 
z"/>
<path fill="#4F261D" opacity="1.000000" stroke="none" 
	d="
M133.059967,459.919800 
	C133.328796,459.417572 133.900009,458.942902 134.760468,458.515259 
	C134.487274,459.024017 133.924820,459.485718 133.059967,459.919800 
z"/>
<path fill="#4F261D" opacity="1.000000" stroke="none" 
	d="
M412.064178,461.543274 
	C412.742432,461.513672 413.507874,461.833862 414.469116,462.407837 
	C413.827057,462.405396 412.989227,462.149231 412.064178,461.543274 
z"/>
<path fill="#4F261D" opacity="1.000000" stroke="none" 
	d="
M418.056213,464.568848 
	C418.722992,464.557495 419.471832,464.887482 420.398621,465.482971 
	C419.763794,465.469055 418.951019,465.189606 418.056213,464.568848 
z"/>
<path fill="#4F261D" opacity="1.000000" stroke="none" 
	d="
M421.998962,466.580139 
	C422.502960,466.491638 423.043243,466.657593 423.745728,467.066956 
	C423.283691,467.151794 422.659454,466.993225 421.998962,466.580139 
z"/>
<path fill="#4F261D" opacity="1.000000" stroke="none" 
	d="
M369.059998,439.593597 
	C369.725525,439.572296 370.478699,439.890625 371.417419,440.468079 
	C370.784515,440.462494 369.966064,440.197845 369.059998,439.593597 
z"/>
<path fill="#4F261D" opacity="1.000000" stroke="none" 
	d="
M359.063293,434.482788 
	C359.746765,434.468323 360.509796,434.811005 361.465637,435.412354 
	C360.819916,435.394012 359.981384,435.116974 359.063293,434.482788 
z"/>
<path fill="#30050B" opacity="1.000000" stroke="none" 
	d="
M425.296814,77.041809 
	C425.543823,77.295662 425.702972,77.581223 425.659363,77.883087 
	C425.456573,77.899391 425.199860,77.875755 425.181671,77.692154 
	C425.123474,77.334740 425.083496,77.160927 425.043488,76.987122 
	C425.043488,76.987122 425.209015,77.073517 425.296814,77.041809 
z"/>
<path fill="#070804" opacity="1.000000" stroke="none" 
	d="
M281.006012,374.070099 
	C276.194061,374.070099 271.880554,374.070099 267.185120,374.070099 
	C267.075806,372.448700 266.981537,371.050323 266.881317,369.563446 
	C267.465271,369.306000 267.879517,368.963257 268.291412,368.966064 
	C273.503387,369.001709 275.108673,366.171173 275.081726,361.307007 
	C274.965546,340.319550 275.075134,319.330963 275.027069,298.342957 
	C275.011047,291.344330 274.442902,290.825745 267.169434,289.857788 
	C267.072601,288.477173 266.971405,287.033997 266.858215,285.420197 
	C267.624878,285.231293 268.234955,284.951538 268.845825,284.949860 
	C278.673553,284.922852 288.502319,284.847748 298.329041,284.952972 
	C310.347107,285.081696 316.814178,289.427765 319.783905,299.121643 
	C323.258667,310.463898 320.357239,319.841797 311.029205,326.742035 
	C321.893250,332.932892 325.398560,342.452850 323.288483,354.272400 
	C321.132660,366.348267 312.832489,373.530762 300.492157,373.989502 
	C294.170654,374.224457 287.834167,374.056152 281.006012,374.070099 
M295.353302,366.493683 
	C300.889557,365.838684 304.372559,362.374603 305.089172,357.280029 
	C305.833862,351.986023 305.994995,346.332275 304.947083,341.130829 
	C303.486145,333.879242 299.020081,331.456848 291.012573,332.119263 
	C291.012573,342.030151 290.857941,351.980591 291.173248,361.916107 
	C291.222626,363.472137 293.407898,364.960419 295.353302,366.493683 
M291.000916,301.540497 
	C291.000916,308.908447 291.000916,316.276367 291.000916,323.605682 
	C301.016174,323.814667 305.423096,316.466766 304.055939,304.057312 
	C303.182159,296.125793 298.942200,292.475891 291.000916,293.179749 
	C291.000916,295.617004 291.000916,298.087067 291.000916,301.540497 
z"/>
<path fill="#0B0B05" opacity="1.000000" stroke="none" 
	d="
M238.370636,321.999878 
	C238.357376,314.009003 238.388657,306.517700 238.318542,299.027405 
	C238.244049,291.069214 237.713699,290.524475 229.683075,289.762115 
	C229.599960,288.414429 229.513138,287.006714 229.404556,285.246094 
	C240.610825,285.246094 251.510391,285.246094 262.811676,285.246094 
	C262.925110,286.500458 263.050964,287.892120 263.183289,289.355408 
	C262.594574,289.637146 262.175446,290.021393 261.777863,290.000275 
	C256.505768,289.720154 254.819061,292.499481 254.854355,297.397491 
	C254.964722,312.711365 255.030151,328.029114 254.786377,343.340179 
	C254.691589,349.293579 254.327209,355.368866 253.024963,361.149689 
	C250.599289,371.917694 241.162415,377.958496 231.539307,375.679657 
	C222.322174,373.496979 215.910553,362.602570 218.074829,352.526733 
	C218.910583,348.635834 220.494919,344.864532 225.302231,344.985443 
	C230.047455,345.104828 231.936340,348.787567 232.102356,352.797363 
	C232.233780,355.971954 230.754242,359.184021 230.567612,362.412842 
	C230.468124,364.134064 231.072815,366.756195 232.275772,367.510254 
	C234.649719,368.998383 236.807571,367.594360 237.522552,364.871948 
	C237.980026,363.130005 238.115250,361.264679 238.132660,359.452148 
	C238.250961,347.135101 238.299484,334.817383 238.370636,321.999878 
z"/>
<path fill="#6F5F36" opacity="1.000000" stroke="none" 
	d="
M235.019012,144.010132 
	C233.978775,144.933044 233.083298,146.315933 231.872513,146.697021 
	C227.310120,148.132996 222.675644,149.375443 218.012787,150.449997 
	C204.623230,153.535629 199.564270,165.572800 206.391632,177.756348 
	C204.432404,176.333908 202.844147,174.571594 201.255905,172.809296 
	C201.236740,175.164276 201.577316,177.545761 202.856384,179.202805 
	C205.292160,182.358307 208.263931,185.100082 211.013153,188.013641 
	C209.130310,187.113571 206.876770,186.607635 205.428558,185.245468 
	C199.037277,179.233902 195.173950,171.689209 197.496185,163.013474 
	C199.765396,154.535934 204.709732,147.606506 214.106476,144.961823 
	C224.995956,141.897018 235.870911,138.646820 245.689606,132.460297 
	C241.702896,135.550888 237.384308,138.286774 232.687622,141.051193 
	C227.990753,142.560471 223.671997,144.041229 219.021103,145.635880 
	C219.828720,146.402740 220.091095,146.825607 220.265213,146.791946 
	C225.199066,145.837997 230.124023,144.838043 235.074127,143.892761 
	C235.097809,143.939911 235.019012,144.010117 235.019012,144.010132 
z"/>
<path fill="#967F41" opacity="1.000000" stroke="none" 
	d="
M312.573792,247.972931 
	C313.726654,251.370926 314.516632,254.963730 316.190491,258.082062 
	C316.988037,259.567810 319.383728,260.796600 321.198669,261.030487 
	C328.763123,262.005249 335.556641,260.017242 341.226318,254.696884 
	C341.544830,254.398010 342.145355,254.399673 342.891541,254.679291 
	C337.415710,262.113586 329.592041,263.499390 320.731689,263.106537 
	C318.688385,263.098999 317.060577,263.181183 315.432739,263.263336 
	C315.406799,263.754059 315.380829,264.244751 315.354889,264.735443 
	C317.293945,265.078491 319.233002,265.421539 321.623352,265.817749 
	C326.105469,266.056488 330.136353,266.242035 334.167206,266.427612 
	C330.653961,269.348389 326.927460,270.474152 322.322845,268.863800 
	C315.929993,266.628082 309.185608,265.309692 302.955566,262.722534 
	C297.394745,260.413239 292.327881,256.914490 287.293610,253.519821 
	C290.470154,253.936935 293.380676,254.834610 296.326813,255.594391 
	C298.793213,256.230438 301.287659,256.673035 302.468567,253.165588 
	C305.491302,253.133621 308.139923,253.133621 310.638336,253.133621 
	C311.082458,251.949402 311.828125,249.961151 312.573792,247.972931 
z"/>
<path fill="#AB8F45" opacity="1.000000" stroke="none" 
	d="
M212.869537,251.888016 
	C210.552750,250.423508 208.235947,248.959000 205.339096,247.127808 
	C207.993484,243.583069 212.616638,242.462143 217.058701,242.177628 
	C227.775040,241.491287 238.531540,241.431778 249.581207,241.556976 
	C247.008774,242.314117 244.134216,242.783279 241.243713,242.923233 
	C234.680786,243.241074 228.110016,243.396973 221.542435,243.618698 
	C221.554840,244.413940 221.567261,245.209167 221.579666,246.004410 
	C227.957474,246.004410 234.335266,246.004410 241.853897,246.004410 
	C239.737122,249.498779 238.365021,251.763855 236.676254,254.178925 
	C235.266907,254.580292 234.174210,254.831665 233.081512,255.083038 
	C234.188309,253.348068 235.295105,251.613113 237.340286,248.407196 
	C234.170776,249.319199 231.891296,249.755463 229.791077,250.624802 
	C225.297424,252.484818 220.896484,254.568787 216.359161,255.977783 
	C218.294006,251.166000 214.691101,252.388397 212.869537,251.888016 
z"/>
<path fill="#FCD661" opacity="1.000000" stroke="none" 
	d="
M424.584778,76.866653 
	C425.083496,77.160927 425.123474,77.334740 425.072083,77.760010 
	C325.498718,78.007652 226.016708,78.006012 126.534714,77.984283 
	C124.554451,77.983856 122.574226,77.748535 120.285767,77.340256 
	C120.959930,76.934364 121.942299,76.702965 122.924675,76.702995 
	C223.325134,76.706108 323.725586,76.726677 424.584778,76.866653 
z"/>
<path fill="#181610" opacity="1.000000" stroke="none" 
	d="
M227.061050,210.035599 
	C228.118057,207.050003 229.175064,204.064407 230.699524,200.689026 
	C231.796600,199.210510 232.426254,198.121780 233.055923,197.033051 
	C233.799011,196.075409 234.542099,195.117752 235.706223,193.789551 
	C236.599777,192.756104 237.072296,192.093185 237.544800,191.430267 
	C238.465729,190.677246 239.386673,189.924225 240.877731,189.174866 
	C241.471283,190.101730 241.773590,191.135269 241.460953,191.925552 
	C240.778931,193.649490 239.784042,195.249664 238.916992,196.900391 
	C238.321243,197.723999 237.725525,198.547623 236.653687,199.763702 
	C232.183792,205.450150 229.672531,211.307693 230.034012,218.040741 
	C230.414032,225.119705 236.288513,227.928726 242.312073,224.316467 
	C243.544937,223.577148 245.534195,224.099167 247.174805,224.039764 
	C245.044022,225.996704 242.913239,227.953644 240.001160,229.916534 
	C237.349976,230.133545 235.480133,230.344574 233.610275,230.555603 
	C233.257462,230.419907 232.904633,230.284210 232.185883,229.756134 
	C231.255768,229.195908 230.691620,229.028061 230.127457,228.860214 
	C227.946732,226.021149 225.766006,223.182098 223.439240,219.755600 
	C222.804337,218.644836 222.315445,218.121521 221.826569,217.598190 
	C221.605270,216.959702 221.383972,216.321213 221.181946,215.027634 
	C221.166367,213.919922 221.131516,213.467285 221.397003,212.977112 
	C222.449600,212.647095 223.201859,212.354630 224.134399,212.211273 
	C224.539474,212.579025 224.735458,212.820984 224.956711,213.377563 
	C225.652527,213.430496 226.294296,213.192139 227.021774,212.592773 
	C227.091995,211.499725 227.076523,210.767654 227.061050,210.035599 
z"/>
<path fill="#615432" opacity="1.000000" stroke="none" 
	d="
M252.599731,153.538971 
	C257.396912,153.422516 261.737122,153.180267 266.080688,153.057144 
	C267.806396,153.008224 270.194550,152.562729 271.114258,153.474625 
	C272.458893,154.807846 272.975586,157.159988 273.346100,159.169861 
	C273.445953,159.711533 271.692993,161.263763 270.873169,161.204727 
	C260.073792,160.427109 249.288849,159.447769 238.502930,158.489410 
	C238.246445,158.466614 238.020309,158.102432 237.352142,157.532532 
	C240.873718,150.890778 247.079376,154.026596 252.599731,153.538971 
z"/>
<path fill="#8D773E" opacity="1.000000" stroke="none" 
	d="
M223.055023,287.018585 
	C220.288620,291.727295 217.522217,296.436035 214.493454,301.591339 
	C211.452072,299.451569 209.401566,298.008942 207.351044,296.566315 
	C206.915970,296.743561 206.480881,296.920807 206.045807,297.098053 
	C206.325470,299.635986 206.605118,302.173889 206.909958,304.940338 
	C202.684616,307.258636 201.322052,306.768433 199.567719,301.799011 
	C197.329681,295.459503 201.670334,286.048035 205.863037,285.042847 
	C208.431412,281.314789 210.278198,278.634155 212.486664,276.276428 
	C209.037598,282.734863 210.460464,288.399872 218.557709,294.922852 
	C218.557709,291.680359 218.557709,289.469543 219.014740,287.183960 
	C220.666183,287.079010 221.860611,287.048798 223.055023,287.018585 
M201.674866,294.486572 
	C201.538544,296.645538 201.402237,298.804474 201.265930,300.963440 
	C204.447784,298.259033 206.749680,295.770355 208.300751,292.878906 
	C208.819183,291.912476 207.418991,289.916809 206.895813,288.391602 
	C205.754593,288.941742 204.330917,289.238739 203.549164,290.111023 
	C202.715973,291.040710 202.489822,292.514404 201.674866,294.486572 
z"/>
<path fill="#221F15" opacity="1.000000" stroke="none" 
	d="
M218.557709,287.258728 
	C218.557709,289.469543 218.557709,291.680359 218.557709,294.922852 
	C210.460464,288.399872 209.037598,282.734863 212.837906,276.228394 
	C213.100876,275.681793 213.339737,275.467590 214.001785,274.967499 
	C215.243301,273.757294 216.027084,272.794495 216.810883,271.831696 
	C220.759705,267.744904 224.708542,263.658081 229.180283,259.300476 
	C230.830505,257.712524 231.957825,256.395355 233.085144,255.078186 
	C233.085144,255.078201 233.073349,255.053513 233.077423,255.068268 
	C234.174210,254.831665 235.266907,254.580292 236.677628,254.152206 
	C236.995651,253.975494 236.941940,253.972473 236.982452,254.342285 
	C234.300613,258.112061 231.517868,261.465729 228.870605,264.923126 
	C225.229111,269.678925 221.690109,274.513184 217.770813,279.436157 
	C216.939804,281.374786 216.445206,283.191132 215.908875,285.391968 
	C216.655670,286.252838 217.444199,286.729156 218.306442,287.264771 
	C218.380142,287.324127 218.557709,287.258728 218.557709,287.258728 
z"/>
<path fill="#242016" opacity="1.000000" stroke="none" 
	d="
M321.147156,263.196228 
	C329.592041,263.499390 337.415710,262.113586 343.241760,254.773071 
	C343.315033,254.449036 343.396210,254.385193 343.750549,254.286728 
	C345.050049,252.770065 345.995239,251.351868 346.940430,249.933655 
	C347.210541,248.596008 347.480652,247.258377 347.803406,245.223175 
	C347.743256,243.408905 347.630432,242.292206 347.467865,240.683655 
	C349.974304,241.715561 351.840515,242.483902 353.706726,243.252243 
	C353.766846,245.511841 353.826965,247.771423 353.500183,250.530548 
	C350.741821,254.026978 348.370361,257.023895 345.998932,260.020813 
	C345.436981,260.511932 344.875061,261.003052 343.749084,261.675751 
	C340.789825,263.284882 338.394623,264.712433 335.999420,266.139984 
	C335.592041,266.202545 335.184662,266.265076 334.472229,266.377625 
	C330.136353,266.242035 326.105469,266.056488 321.591125,265.498718 
	C321.120850,264.483124 321.134003,263.839661 321.147156,263.196228 
z"/>
<path fill="#4A412A" opacity="1.000000" stroke="none" 
	d="
M236.994278,254.002197 
	C238.365021,251.763855 239.737122,249.498779 241.853897,246.004410 
	C234.335266,246.004410 227.957474,246.004410 221.579666,246.004410 
	C221.567261,245.209167 221.554840,244.413940 221.542435,243.618698 
	C228.110016,243.396973 234.680786,243.241074 241.243713,242.923233 
	C244.134216,242.783279 247.008774,242.314117 250.057343,241.636505 
	C250.654404,240.943192 251.084717,240.607788 252.074127,240.119034 
	C254.090591,239.328293 255.547928,238.690887 256.999420,238.441864 
	C257.043152,239.608902 257.092712,240.387573 257.109924,241.549988 
	C257.075104,242.445831 257.072723,242.957977 257.059174,243.461243 
	C257.048035,243.452362 257.033112,243.470749 256.685944,243.555878 
	C255.536041,244.318039 254.733307,244.995102 253.930573,245.672150 
	C251.757858,246.948914 249.585129,248.225662 246.861145,249.765472 
	C243.187241,251.343155 240.064590,252.657806 236.941940,253.972473 
	C236.941940,253.972473 236.995651,253.975494 236.994278,254.002197 
z"/>
<path fill="#B79945" opacity="1.000000" stroke="none" 
	d="
M314.166962,195.858551 
	C315.067657,195.890381 315.968384,195.922195 317.436829,195.982117 
	C318.004578,196.010239 318.248962,196.251266 318.124695,196.547577 
	C317.022797,197.591705 316.045197,198.339508 314.927307,198.789047 
	C314.296600,198.247543 313.806244,198.004288 313.315857,197.761047 
	C313.224060,198.672836 313.132263,199.584610 313.038177,200.831543 
	C312.312408,202.551315 311.588928,203.935959 310.945007,205.488617 
	C311.168549,205.865417 311.355133,206.024185 311.683777,206.361237 
	C311.783234,206.589539 311.945923,207.060242 311.904297,207.310989 
	C311.825989,207.895767 311.789246,208.229782 311.440369,208.735443 
	C309.315247,211.271957 307.502228,213.636841 305.377075,216.039185 
	C304.782928,216.710770 304.500916,217.344879 304.218933,217.979004 
	C305.491241,217.997040 306.763580,218.015091 308.035889,218.033142 
	C307.398224,221.318817 304.617188,221.724411 302.835419,220.348343 
	C301.607758,219.400208 301.961975,216.403839 301.549377,213.970047 
	C301.549377,212.454407 301.732635,210.874954 301.458099,209.379532 
	C301.350128,208.791275 300.219086,208.390823 299.335266,207.552658 
	C300.109619,205.818512 301.102661,204.436569 302.075256,203.037552 
	C302.054871,203.020477 302.027344,203.064255 302.351379,203.080246 
	C303.449341,202.810364 304.223236,202.524490 305.373505,202.232956 
	C308.025330,199.924362 310.300812,197.621460 312.829437,195.447845 
	C313.444031,195.670944 313.805511,195.764755 314.166962,195.858551 
z"/>
<path fill="#695A35" opacity="1.000000" stroke="none" 
	d="
M247.512207,223.954742 
	C245.534195,224.099167 243.544937,223.577148 242.312073,224.316467 
	C236.288513,227.928726 230.414032,225.119705 230.034012,218.040741 
	C229.672531,211.307693 232.183792,205.450150 236.502960,200.038269 
	C235.665070,204.179520 234.497314,208.437439 233.343369,212.699066 
	C233.171371,213.334244 232.800308,214.068802 232.970627,214.618073 
	C233.949814,217.776154 235.064392,220.892242 236.133041,224.022583 
	C238.833817,222.727966 241.630966,221.595688 244.196304,220.072906 
	C245.559219,219.263916 246.520309,217.777969 248.122589,216.199463 
	C249.144745,215.046753 249.707092,214.292160 250.269440,213.537567 
	C250.269440,213.537567 250.414276,213.416733 250.745483,213.220367 
	C252.662842,211.913376 254.248993,210.802750 256.464172,209.251678 
	C256.262604,211.235321 256.169647,212.149933 256.076721,213.064545 
	C256.076721,213.064545 256.014374,212.998901 255.726608,213.123276 
	C254.957260,214.163788 254.475693,215.079941 253.994110,215.996094 
	C252.395081,217.778610 250.796036,219.561142 248.699310,221.064148 
	C247.973877,220.809555 247.746124,220.834473 247.518372,220.859390 
	C247.708130,221.084595 247.897888,221.309799 248.087646,221.535004 
	C248.008301,222.313248 247.928955,223.091476 247.512207,223.954742 
z"/>
<path fill="#1C1A11" opacity="1.000000" stroke="none" 
	d="
M233.065735,141.022675 
	C237.384308,138.286774 241.702896,135.550888 246.054337,132.470078 
	C251.732162,131.437927 257.377106,130.750687 263.550018,130.419006 
	C264.685760,131.219971 265.293518,131.665329 266.072510,132.346680 
	C266.870117,133.039841 267.496490,133.497009 268.105835,134.342834 
	C268.059937,135.508896 268.031097,136.286331 267.656921,136.999649 
	C266.850800,136.973846 266.389923,137.012146 265.929077,137.050446 
	C265.157654,136.747879 264.386261,136.445328 263.153168,135.694855 
	C257.948853,133.068359 253.521469,133.183548 249.609024,137.045074 
	C248.548981,137.514114 247.488937,137.983139 245.781219,138.557877 
	C244.438721,138.869995 243.743896,139.076401 242.712585,139.306458 
	C240.822891,140.691498 239.269653,142.052887 237.716431,143.414276 
	C237.047714,143.591751 236.379028,143.769241 235.364670,143.978424 
	C235.019012,144.010117 235.097809,143.939911 234.938782,143.636353 
	C234.208420,142.562744 233.637070,141.792709 233.065735,141.022675 
z"/>
<path fill="#6F5F36" opacity="1.000000" stroke="none" 
	d="
M250.342590,181.494034 
	C250.695374,181.363937 251.048172,181.233841 252.091888,181.004791 
	C259.268280,180.444046 265.753754,179.982254 272.239227,179.520447 
	C272.583801,179.574783 272.928345,179.629120 273.884277,179.766907 
	C276.914825,178.781097 279.525848,176.706390 280.549225,181.072632 
	C276.530884,181.037750 275.877014,182.942078 277.012543,186.000229 
	C276.565552,186.047119 276.118561,186.093994 275.143921,185.817780 
	C272.688324,185.087204 270.760345,184.679733 268.832397,184.272263 
	C266.565399,184.248764 264.298370,184.225266 261.219727,184.141022 
	C257.497894,185.202469 254.587723,186.324631 251.677536,187.446777 
	C251.303497,187.568207 250.929459,187.689621 249.951553,187.912476 
	C248.606598,188.716385 247.865524,189.418854 247.124451,190.121323 
	C247.124451,190.121323 246.680634,190.213120 246.371948,190.136063 
	C246.063248,190.059006 245.902542,189.895035 245.941467,189.547394 
	C246.313034,188.074509 246.645691,186.949265 247.195953,185.564087 
	C248.389908,184.034119 249.366241,182.764069 250.342590,181.494034 
z"/>
<path fill="#8F793F" opacity="1.000000" stroke="none" 
	d="
M305.935425,246.927185 
	C309.047424,240.646484 314.959625,237.771729 320.981964,235.621109 
	C323.436401,234.744614 326.730957,236.220612 329.643280,236.626282 
	C329.694702,237.324356 329.746094,238.022430 329.797516,238.720505 
	C324.945618,240.890182 320.093750,243.059875 314.722778,244.848175 
	C313.912323,241.140717 312.282837,242.918579 311.020630,243.674377 
	C309.295013,244.707642 307.627716,245.838287 305.935425,246.927185 
z"/>
<path fill="#836F3C" opacity="1.000000" stroke="none" 
	d="
M212.474350,251.905640 
	C214.691101,252.388397 218.294006,251.166000 216.118393,255.740295 
	C211.649597,258.010834 207.374802,260.067505 202.970337,261.793121 
	C201.288284,262.452148 199.309204,262.352997 197.250473,261.952332 
	C196.688293,260.215210 196.341110,259.125061 195.992538,257.674103 
	C195.970459,256.832184 195.949768,256.351074 196.075989,255.627838 
	C196.737778,255.246521 197.252655,255.107346 197.767532,254.968170 
	C197.767532,254.968170 197.990143,254.713058 198.068527,255.056396 
	C198.358078,255.799713 198.569244,256.199677 198.780396,256.599670 
	C199.237701,256.235199 199.694992,255.870758 200.152313,255.506302 
	C201.849899,255.085052 203.547485,254.663788 205.898041,254.098175 
	C207.081161,253.429352 207.611343,252.904877 208.141510,252.380402 
	C209.454071,252.228027 210.766617,252.075638 212.474350,251.905640 
z"/>
<path fill="#615433" opacity="1.000000" stroke="none" 
	d="
M302.094482,253.197556 
	C301.287659,256.673035 298.793213,256.230438 296.326813,255.594391 
	C293.380676,254.834610 290.470154,253.936935 287.134460,253.218536 
	C284.435974,253.267365 282.147247,253.196655 279.237915,252.747620 
	C275.380951,251.969894 272.144531,251.570496 268.908142,251.171097 
	C268.908142,251.171097 268.959167,251.077072 268.970459,250.710754 
	C268.967651,249.918594 268.953491,249.492722 269.284546,249.025452 
	C270.752228,248.322647 271.874695,247.661270 273.402893,246.984131 
	C276.796906,247.664062 279.764374,248.471985 282.777985,249.031433 
	C288.510864,250.095673 294.270111,251.017899 300.298096,252.107056 
	C301.083344,252.542511 301.588898,252.870041 302.094482,253.197556 
z"/>
<path fill="#5B4F30" opacity="1.000000" stroke="none" 
	d="
M302.095673,203.054626 
	C301.102661,204.436569 300.109619,205.818512 298.973328,207.491486 
	C298.067047,208.424881 297.304047,209.067230 295.919189,209.856354 
	C292.497040,211.515228 290.280884,213.180008 293.650146,216.304794 
	C293.860107,216.960266 294.070099,217.615753 294.037903,218.670135 
	C293.415253,219.499817 293.034760,219.930603 292.654266,220.361389 
	C293.175842,220.571350 293.697418,220.781311 294.142059,221.347504 
	C292.254913,222.085876 290.444733,222.468018 288.745575,222.491089 
	C288.461151,220.638809 288.065674,219.145569 287.670197,217.652344 
	C287.182312,216.986740 286.694458,216.321136 286.110809,214.980621 
	C287.368500,212.281616 288.721985,210.257523 290.075470,208.233429 
	C290.478577,207.859085 290.881683,207.484741 291.885803,207.017212 
	C293.690460,206.053635 294.894043,205.183212 296.097626,204.312790 
	C296.097626,204.312790 296.391479,204.026611 296.968781,203.962769 
	C299.062622,203.617493 300.579132,203.336060 302.095673,203.054626 
z"/>
<path fill="#CFAC49" opacity="1.000000" stroke="none" 
	d="
M236.982452,254.342285 
	C240.064590,252.657806 243.187241,251.343155 246.673508,250.049133 
	C243.692780,253.377579 240.283310,256.622894 237.027237,260.015442 
	C234.902420,262.229279 233.000351,264.656952 230.845093,267.615906 
	C229.143723,270.510284 227.595795,272.777557 225.832947,274.772766 
	C224.727264,274.840393 223.729431,275.025146 222.967590,275.551483 
	C221.284424,276.714355 219.720047,278.049133 218.107208,279.313782 
	C221.690109,274.513184 225.229111,269.678925 228.870605,264.923126 
	C231.517868,261.465729 234.300613,258.112061 236.982452,254.342285 
z"/>
<path fill="#5E5130" opacity="1.000000" stroke="none" 
	d="
M223.954117,212.062164 
	C223.201859,212.354630 222.449600,212.647095 221.098724,212.961792 
	C220.106171,212.954178 219.712250,212.924316 219.318329,212.894470 
	C219.094635,212.306534 218.870926,211.718597 218.720215,210.464783 
	C218.506744,209.193558 218.220276,208.588257 217.933792,207.982941 
	C217.850494,207.644821 217.767197,207.306702 217.760651,206.288574 
	C217.209091,201.894958 216.675827,198.161316 215.899826,194.478836 
	C215.635422,193.224075 214.760361,192.098007 214.164337,190.913132 
	C214.164337,190.913132 214.078583,190.923996 214.072586,190.585999 
	C213.983826,189.670868 213.901077,189.093704 214.159851,188.365631 
	C218.541504,184.126190 212.535706,184.313507 211.940491,182.197937 
	C212.330917,182.062912 212.721344,181.927887 213.808197,181.888748 
	C215.809280,183.374802 217.113937,184.764984 218.418610,186.155151 
	C218.536652,186.879776 218.654709,187.604401 218.524658,188.931854 
	C218.521469,190.691452 218.766357,191.848251 219.011261,193.005035 
	C219.068344,193.393188 219.125412,193.781342 219.105804,194.876770 
	C220.061569,198.730011 221.093994,201.875977 222.126419,205.021942 
	C222.707230,206.455399 223.288040,207.888870 223.920105,209.996002 
	C223.965607,211.133835 223.959869,211.598007 223.954117,212.062164 
z"/>
<path fill="#BA9B47" opacity="1.000000" stroke="none" 
	d="
M280.907898,181.073685 
	C279.525848,176.706390 276.914825,178.781097 274.146118,179.753891 
	C274.205841,178.412994 274.486481,177.105423 275.058350,175.940857 
	C275.706329,174.621323 276.615356,173.429977 277.410889,172.182877 
	C278.568909,173.213394 280.061798,174.044418 280.818237,175.314163 
	C282.639069,178.370438 284.593079,181.492432 285.576355,184.856003 
	C286.341156,187.472351 286.552673,190.891678 285.442810,193.200897 
	C284.634094,194.883606 281.271698,195.339020 278.280792,196.687332 
	C278.616577,193.133347 278.827637,190.899414 279.430176,188.358368 
	C280.747528,189.415680 281.673370,190.780106 282.756470,192.376221 
	C287.531891,187.160858 282.447113,184.481461 280.907898,181.073685 
z"/>
<path fill="#806D3C" opacity="1.000000" stroke="none" 
	d="
M226.047852,275.044861 
	C227.595795,272.777557 229.143723,270.510284 230.845276,268.012024 
	C231.416489,267.648834 231.834106,267.516632 232.576324,267.768799 
	C232.981750,269.472046 233.062576,270.791016 233.143387,272.109955 
	C232.708023,272.796814 232.272644,273.483643 231.451080,274.568054 
	C230.697815,275.632477 230.330765,276.299347 229.963715,276.966217 
	C227.849899,280.192871 225.736084,283.419525 223.338654,286.832397 
	C221.860611,287.048798 220.666183,287.079010 219.014740,287.183960 
	C218.557709,287.258728 218.380142,287.324127 218.324432,286.967468 
	C218.509842,286.071564 218.750977,285.532349 219.254929,284.770386 
	C221.694443,281.380066 223.871140,278.212463 226.047852,275.044861 
z"/>
<path fill="#B79945" opacity="1.000000" stroke="none" 
	d="
M317.880859,195.891296 
	C320.840424,192.472961 322.179657,186.905045 329.656097,187.252426 
	C328.296112,190.405075 327.225922,192.788483 326.238342,195.205658 
	C325.429413,197.185547 324.718811,199.205612 323.979614,201.841400 
	C322.012573,203.821381 320.030518,205.167847 317.952393,206.047241 
	C317.754120,205.282593 317.651855,204.985016 317.677795,204.361145 
	C320.049713,200.716339 322.293396,197.397842 324.537079,194.079346 
	C324.114319,193.730438 323.691559,193.381531 323.268799,193.032623 
	C321.595520,194.105499 319.922241,195.178391 318.248962,196.251266 
	C318.248962,196.251266 318.004578,196.010239 317.880859,195.891296 
z"/>
<path fill="#8F793F" opacity="1.000000" stroke="none" 
	d="
M257.070312,243.470108 
	C257.072723,242.957977 257.075104,242.445831 257.336365,241.404785 
	C258.055298,240.602646 258.515411,240.329422 259.132874,240.278168 
	C259.838928,240.284866 260.387573,240.069611 261.273499,239.903870 
	C262.666595,239.634628 263.722351,239.315872 264.842285,238.639160 
	C265.022736,237.566269 265.139038,236.851303 265.599426,236.136169 
	C266.631073,236.108139 267.318573,236.080292 268.341492,236.005219 
	C269.503784,235.000458 270.330688,234.042908 271.516571,233.068100 
	C273.987701,232.098083 276.099884,231.145309 278.212067,230.192535 
	C275.177734,233.595749 272.045471,236.918884 269.162140,240.445541 
	C268.151733,241.681366 267.753387,243.417603 266.762115,245.448639 
	C263.237244,245.457870 260.985931,241.344620 257.070312,243.470108 
z"/>
<path fill="#806D3C" opacity="1.000000" stroke="none" 
	d="
M287.213409,146.829208 
	C291.957458,150.149948 293.584015,157.773254 290.193817,161.776581 
	C289.418884,162.691635 287.761200,162.859131 286.509796,163.370682 
	C286.257233,162.217270 285.972687,161.069748 285.758453,159.909256 
	C285.247162,157.139053 284.769012,154.362732 284.641052,151.269714 
	C286.601898,152.265106 288.199188,153.579666 290.128174,155.167191 
	C289.129120,152.309265 288.171265,149.569229 287.213409,146.829208 
z"/>
<path fill="#8F793F" opacity="1.000000" stroke="none" 
	d="
M300.018402,251.999100 
	C294.270111,251.017899 288.510864,250.095673 282.777985,249.031433 
	C279.764374,248.471985 276.796906,247.664062 273.373779,246.727066 
	C272.955933,246.314133 272.972900,246.142502 272.989838,245.970856 
	C274.891571,245.755264 277.177551,244.750854 278.629669,245.458206 
	C285.560242,248.834351 292.877014,248.188889 300.156586,248.299530 
	C300.729187,248.308243 301.294403,248.805374 301.703644,249.584946 
	C301.035645,250.729294 300.527008,251.364197 300.018402,251.999100 
z"/>
<path fill="#8F793F" opacity="1.000000" stroke="none" 
	d="
M288.634521,222.850159 
	C290.444733,222.468018 292.254913,222.085876 294.438049,221.328156 
	C295.008881,220.928528 295.206818,220.904465 295.404785,220.880386 
	C296.221558,222.574158 297.215210,224.212830 297.768341,225.988724 
	C297.990387,226.701660 297.481476,228.134964 296.874207,228.478516 
	C296.233734,228.840866 294.624603,228.632568 294.221008,228.090805 
	C291.081207,223.875854 288.118195,227.172775 285.127594,228.161621 
	C283.614349,228.661987 282.157227,229.331924 280.364563,229.503693 
	C281.315033,228.071396 282.597168,227.086060 283.830139,226.042587 
	C285.047913,225.011917 286.215942,223.922470 287.610962,222.865738 
	C288.089325,222.880081 288.362122,222.872589 288.634521,222.850159 
z"/>
<path fill="#1F1C14" opacity="1.000000" stroke="none" 
	d="
M211.644714,182.053436 
	C212.535706,184.313507 218.541504,184.126190 213.795685,188.232407 
	C212.593735,188.345276 212.097519,188.440430 211.601288,188.535599 
	C211.601288,188.535599 211.288116,188.295807 211.150635,188.154724 
	C208.263931,185.100082 205.292160,182.358307 202.856384,179.202805 
	C201.577316,177.545761 201.236740,175.164276 201.255905,172.809296 
	C202.844147,174.571594 204.432404,176.333908 206.356110,178.134064 
	C208.244019,179.417587 209.796478,180.663254 211.644714,182.053436 
z"/>
<path fill="#373121" opacity="1.000000" stroke="none" 
	d="
M272.575989,245.942184 
	C272.972900,246.142502 272.955933,246.314133 272.968079,246.742828 
	C271.874695,247.661270 270.752228,248.322647 268.934631,249.013123 
	C267.489166,249.421616 266.738861,249.801010 265.988525,250.180420 
	C263.620056,249.869690 261.251556,249.558975 258.255676,249.109375 
	C257.429840,247.137253 257.231476,245.304001 257.033112,243.470749 
	C257.033112,243.470749 257.048035,243.452362 257.059174,243.461243 
	C260.985931,241.344620 263.237244,245.457870 266.830292,245.814117 
	C268.861969,245.742020 270.512024,245.827774 272.575989,245.942184 
z"/>
<path fill="#584D30" opacity="1.000000" stroke="none" 
	d="
M318.048462,206.514313 
	C320.030518,205.167847 322.012573,203.821381 324.069855,202.195190 
	C325.210022,201.295715 326.274994,200.675980 327.659210,200.362152 
	C327.627777,202.758942 327.277130,204.849792 326.926514,206.940659 
	C325.420593,208.789627 323.914642,210.638596 321.838440,212.667511 
	C320.844147,212.885757 320.420166,212.924072 319.779114,212.675232 
	C319.057495,210.430161 318.552979,208.472244 318.048462,206.514313 
z"/>
<path fill="#1F1C14" opacity="1.000000" stroke="none" 
	d="
M300.298096,252.107056 
	C300.527008,251.364197 301.035645,250.729294 301.826782,249.961090 
	C303.187927,248.923431 304.266571,248.019089 305.640320,247.020966 
	C307.627716,245.838287 309.295013,244.707642 311.020630,243.674377 
	C312.282837,242.918579 313.912323,241.140717 314.365784,244.773590 
	C313.941986,245.858780 313.356079,246.637192 312.671997,247.694260 
	C311.828125,249.961151 311.082458,251.949402 310.638336,253.133621 
	C308.139923,253.133621 305.491302,253.133621 302.468567,253.165588 
	C301.588898,252.870041 301.083344,252.542511 300.298096,252.107056 
z"/>
<path fill="#8D773E" opacity="1.000000" stroke="none" 
	d="
M218.602203,185.704163 
	C217.113937,184.764984 215.809280,183.374802 214.123566,181.894135 
	C214.440613,177.367493 215.138718,172.931366 215.836807,168.495255 
	C216.437088,168.518768 217.037369,168.542297 217.637650,168.565811 
	C220.080948,173.884369 218.579041,179.669891 218.602203,185.704163 
z"/>
<path fill="#3C3524" opacity="1.000000" stroke="none" 
	d="
M287.200684,146.826950 
	C288.171265,149.569229 289.129120,152.309265 290.128174,155.167191 
	C288.199188,153.579666 286.601898,152.265106 284.685852,150.889053 
	C284.367126,150.827560 284.239319,150.788177 284.145996,150.400085 
	C282.568604,149.128143 280.838135,147.250122 279.646393,147.545517 
	C275.967255,148.457504 274.483368,146.470398 273.238312,143.641327 
	C274.252869,142.950272 275.100952,142.494049 275.949005,142.037811 
	C275.949005,142.037811 276.412750,142.161194 276.751099,142.618683 
	C280.452057,144.319046 283.814667,145.561920 287.177277,146.804779 
	C287.177277,146.804794 287.187927,146.824692 287.200684,146.826950 
z"/>
<path fill="#5B4F30" opacity="1.000000" stroke="none" 
	d="
M287.405792,222.858810 
	C286.215942,223.922470 285.047913,225.011917 283.830139,226.042587 
	C282.597168,227.086060 281.315033,228.071396 279.979248,229.428482 
	C279.531769,229.885452 279.159485,229.996140 278.499634,230.149689 
	C276.099884,231.145309 273.987701,232.098083 271.168701,233.004578 
	C269.978119,232.041809 269.494354,231.125320 269.322510,230.014008 
	C271.179291,228.661697 272.724182,227.504196 274.269073,226.346710 
	C277.226105,225.149490 280.183136,223.952271 283.911987,222.779877 
	C285.591125,222.822739 286.498444,222.840775 287.405792,222.858810 
z"/>
<path fill="#726237" opacity="1.000000" stroke="none" 
	d="
M191.949280,259.637512 
	C191.046021,259.983429 190.081696,260.223145 189.253403,260.699432 
	C187.923752,261.464081 186.684113,262.385223 185.406433,263.240234 
	C185.207077,260.915710 184.002121,257.866821 185.036438,256.430969 
	C186.723862,254.088409 189.872147,252.798172 192.697327,251.478394 
	C192.167191,253.658920 186.913895,254.802277 192.174622,257.704285 
	C192.074295,258.532318 192.011780,259.084900 191.949280,259.637512 
z"/>
<path fill="#B79945" opacity="1.000000" stroke="none" 
	d="
M256.433167,213.032776 
	C256.169647,212.149933 256.262604,211.235321 256.464172,209.251678 
	C254.248993,210.802750 252.662842,211.913376 250.786362,213.135376 
	C252.931900,210.532501 255.233047,207.670334 257.915619,205.226913 
	C258.462158,204.729095 260.443268,205.806213 261.763062,206.157303 
	C261.397980,207.459656 261.352722,209.008575 260.586853,210.001892 
	C259.631531,211.240921 258.082397,212.022125 256.433167,213.032776 
z"/>
<path fill="#342F1F" opacity="1.000000" stroke="none" 
	d="
M280.549225,181.072632 
	C282.447113,184.481461 287.531891,187.160858 282.756470,192.376221 
	C281.673370,190.780106 280.747528,189.415680 279.484253,187.934235 
	C278.595581,187.315277 278.044250,186.813370 277.252747,186.155838 
	C275.877014,182.942078 276.530884,181.037750 280.549225,181.072632 
z"/>
<path fill="#967F41" opacity="1.000000" stroke="none" 
	d="
M353.769226,242.899582 
	C351.840515,242.483902 349.974304,241.715561 347.467865,240.683655 
	C347.630432,242.292206 347.743256,243.408905 347.738861,244.880157 
	C344.467163,243.220505 341.028503,241.365860 342.997711,235.103302 
	C346.954620,237.821915 350.393188,240.184418 353.769226,242.899582 
z"/>
<path fill="#836F3C" opacity="1.000000" stroke="none" 
	d="
M314.424622,195.568787 
	C313.805511,195.764755 313.444031,195.670944 312.944458,195.184540 
	C310.765747,190.805847 309.957062,195.897888 308.268799,195.270859 
	C308.148956,195.150269 307.909149,194.909180 307.909149,194.909180 
	C310.624573,191.804398 313.340027,188.699615 316.055450,185.594818 
	C316.815979,186.067459 317.576508,186.540100 318.337006,187.012726 
	C317.118774,189.768158 315.900543,192.523590 314.424622,195.568787 
z"/>
<path fill="#5B4F30" opacity="1.000000" stroke="none" 
	d="
M258.975494,240.056183 
	C258.515411,240.329422 258.055298,240.602646 257.368744,241.021072 
	C257.092712,240.387573 257.043152,239.608902 257.092896,238.172180 
	C257.572754,236.872406 257.953339,236.230667 258.333893,235.588913 
	C258.707611,235.460480 259.081360,235.332031 260.005432,235.227402 
	C262.010437,234.489456 263.465088,233.727707 265.299164,232.983383 
	C266.454407,234.018021 267.230255,235.035233 268.006104,236.052429 
	C267.318573,236.080292 266.631073,236.108139 265.242981,236.126755 
	C264.620972,237.077377 264.699554,238.037247 264.778137,238.997101 
	C263.722351,239.315872 262.666595,239.634628 261.118988,239.700928 
	C260.076599,239.651047 259.526062,239.853607 258.975494,240.056183 
z"/>
<path fill="#342F1F" opacity="1.000000" stroke="none" 
	d="
M305.689209,216.001740 
	C307.502228,213.636841 309.315247,211.271957 311.810425,208.881271 
	C313.295990,210.207123 314.099426,211.558762 314.603363,212.998032 
	C313.675476,213.832779 313.047058,214.579895 312.418671,215.326996 
	C311.346039,215.736328 310.273407,216.145660 308.441284,216.404633 
	C307.017578,216.170090 306.353394,216.085922 305.689209,216.001740 
z"/>
<path fill="#BA9B47" opacity="1.000000" stroke="none" 
	d="
M272.035645,179.197174 
	C265.753754,179.982254 259.268280,180.444046 252.358627,180.913208 
	C252.881653,180.165894 253.813660,178.783218 254.778610,178.759842 
	C260.458832,178.622299 266.146729,178.801453 272.035645,179.197174 
z"/>
<path fill="#584D30" opacity="1.000000" stroke="none" 
	d="
M275.857971,141.712540 
	C275.100952,142.494049 274.252869,142.950272 272.991058,143.661072 
	C272.577301,143.915634 272.084076,143.953308 272.084076,143.953308 
	C271.456635,143.193298 270.829163,142.433289 270.062744,141.080109 
	C269.320648,139.968353 268.717529,139.449768 268.114441,138.931168 
	C268.114441,138.931168 268.026154,138.973465 268.043518,138.626190 
	C268.041321,137.873856 268.021790,137.468796 268.002228,137.063751 
	C268.031097,136.286331 268.059937,135.508896 268.376984,134.463593 
	C269.391571,134.483398 270.117981,134.771072 270.844391,135.058762 
	C272.485229,137.168259 274.126068,139.277756 275.857971,141.712540 
z"/>
<path fill="#806D3C" opacity="1.000000" stroke="none" 
	d="
M249.994751,137.277725 
	C253.521469,133.183548 257.948853,133.068359 262.857239,135.598785 
	C258.808838,136.470551 254.594666,136.990448 249.994751,137.277725 
z"/>
<path fill="#B79945" opacity="1.000000" stroke="none" 
	d="
M312.783600,215.530518 
	C313.047058,214.579895 313.675476,213.832779 314.960266,213.047394 
	C317.076508,212.993546 318.536346,212.977966 319.996185,212.962387 
	C320.420166,212.924072 320.844147,212.885757 321.586121,212.864929 
	C320.399719,215.040802 318.895325,217.199173 317.214874,219.610062 
	C315.370850,217.852356 314.259705,216.793198 312.783600,215.530518 
z"/>
<path fill="#806D3C" opacity="1.000000" stroke="none" 
	d="
M272.059326,144.345474 
	C272.084076,143.953308 272.577301,143.915634 272.824554,143.895889 
	C274.483368,146.470398 275.967255,148.457504 279.646393,147.545517 
	C280.838135,147.250122 282.568604,149.128143 284.124695,150.336700 
	C282.077057,150.421570 279.958496,149.996841 277.837311,149.983200 
	C274.234344,149.959976 272.178558,148.468750 272.059326,144.345474 
z"/>
<path fill="#262318" opacity="1.000000" stroke="none" 
	d="
M192.212448,257.428864 
	C186.913895,254.802277 192.167191,253.658920 193.057907,251.554596 
	C193.499222,251.002884 193.873245,250.789444 194.725357,250.844666 
	C196.098984,251.418869 196.994507,251.724411 197.890045,252.029953 
	C197.888535,252.766968 197.887024,253.503998 197.826523,254.604599 
	C197.252655,255.107346 196.737778,255.246521 195.777084,255.687408 
	C194.887924,256.342712 194.444595,256.696320 193.696930,257.087524 
	C192.999222,257.226410 192.605835,257.327637 192.212448,257.428864 
z"/>
<path fill="#836F3C" opacity="1.000000" stroke="none" 
	d="
M214.133728,191.372986 
	C214.760361,192.098007 215.635422,193.224075 215.899826,194.478836 
	C216.675827,198.161316 217.209091,201.894958 217.757004,206.026901 
	C213.068146,202.410141 214.618149,196.868988 214.133728,191.372986 
z"/>
<path fill="#6F5F36" opacity="1.000000" stroke="none" 
	d="
M239.253769,196.871765 
	C239.784042,195.249664 240.778931,193.649490 241.460953,191.925552 
	C241.773590,191.135269 241.471283,190.101730 241.143341,189.031860 
	C240.796677,188.706039 240.754517,188.526871 241.077820,188.018158 
	C242.303528,187.156235 243.163727,186.623840 244.014450,186.454529 
	C244.637482,187.843399 245.270020,188.869217 245.902557,189.895035 
	C245.902542,189.895035 246.063248,190.059006 246.145386,190.140381 
	C244.015182,192.428879 241.802856,194.636002 239.253769,196.871765 
z"/>
<path fill="#BA9B47" opacity="1.000000" stroke="none" 
	d="
M244.023956,186.091461 
	C243.163727,186.623840 242.303528,187.156235 241.140930,187.749359 
	C243.759476,185.626587 246.680435,183.443085 249.971985,181.376801 
	C249.366241,182.764069 248.389908,184.034119 246.826767,185.603088 
	C245.501297,185.965179 244.762619,186.028336 244.023956,186.091461 
z"/>
<path fill="#CFAC49" opacity="1.000000" stroke="none" 
	d="
M269.001404,251.535889 
	C272.144531,251.570496 275.380951,251.969894 278.804260,252.707474 
	C275.503021,254.300247 272.046814,255.278961 269.001404,251.535889 
z"/>
<path fill="#726237" opacity="1.000000" stroke="none" 
	d="
M346.348450,260.031830 
	C348.370361,257.023895 350.741821,254.026978 353.439636,250.952148 
	C351.409973,253.930450 349.053986,256.986664 346.348450,260.031830 
z"/>
<path fill="#806D3C" opacity="1.000000" stroke="none" 
	d="
M287.118042,146.460434 
	C283.814667,145.561920 280.452057,144.319046 276.950165,142.752625 
	C281.004913,141.495514 284.620850,142.168716 287.118042,146.460434 
z"/>
<path fill="#836F3C" opacity="1.000000" stroke="none" 
	d="
M302.075256,203.037537 
	C300.579132,203.336060 299.062622,203.617493 297.153931,203.874603 
	C299.505219,201.535217 302.248657,199.220169 305.451172,196.914093 
	C305.910278,196.923065 306.192291,197.190994 306.102020,197.454391 
	C305.684998,198.154449 305.358276,198.591110 304.724426,199.160294 
	C303.620667,200.549957 302.824005,201.807098 302.027344,203.064240 
	C302.027344,203.064255 302.054871,203.020477 302.075256,203.037537 
z"/>
<path fill="#BFA048" opacity="1.000000" stroke="none" 
	d="
M233.478638,272.030762 
	C233.062576,270.791016 232.981750,269.472046 232.908997,267.772583 
	C233.939850,266.583435 234.962616,265.774750 235.985397,264.966095 
	C236.469238,265.345734 236.953094,265.725372 237.436935,266.105011 
	C236.229248,268.053864 235.021576,270.002686 233.478638,272.030762 
z"/>
<path fill="#BA9B47" opacity="1.000000" stroke="none" 
	d="
M252.082794,187.600647 
	C254.587723,186.324631 257.497894,185.202469 260.798401,184.195160 
	C258.288513,185.458191 255.388275,186.606354 252.082794,187.600647 
z"/>
<path fill="#8D773E" opacity="1.000000" stroke="none" 
	d="
M222.323242,204.743896 
	C221.093994,201.875977 220.061569,198.730011 219.110519,195.171158 
	C220.301285,197.994125 221.410675,201.229996 222.323242,204.743896 
z"/>
<path fill="#B79945" opacity="1.000000" stroke="none" 
	d="
M327.279358,206.918121 
	C327.277130,204.849792 327.627777,202.758942 328.007812,200.251984 
	C331.661255,198.859619 331.193848,201.397873 330.564240,203.217087 
	C330.080750,204.614166 328.644623,205.681564 327.279358,206.918121 
z"/>
<path fill="#967F41" opacity="1.000000" stroke="none" 
	d="
M336.215424,266.386292 
	C338.394623,264.712433 340.789825,263.284882 343.555420,261.878296 
	C341.427643,263.477051 338.929535,265.054810 336.215424,266.386292 
z"/>
<path fill="#836F3C" opacity="1.000000" stroke="none" 
	d="
M289.699036,208.185089 
	C288.721985,210.257523 287.368500,212.281616 285.978485,214.700745 
	C282.936157,211.292496 283.620880,209.882980 289.699036,208.185089 
z"/>
<path fill="#CFAC49" opacity="1.000000" stroke="none" 
	d="
M256.685944,243.555878 
	C257.231476,245.304001 257.429840,247.137253 257.856689,249.195892 
	C257.246765,249.828613 256.408417,250.235962 255.570084,250.643311 
	C255.024582,249.262787 254.479080,247.882278 253.932068,246.086960 
	C254.733307,244.995102 255.536041,244.318039 256.685944,243.555878 
z"/>
<path fill="#AB8F45" opacity="1.000000" stroke="none" 
	d="
M192.174622,257.704285 
	C192.605835,257.327637 192.999222,257.226410 193.846344,257.345520 
	C194.864700,257.722260 195.429306,257.878601 195.993927,258.034943 
	C196.341110,259.125061 196.688293,260.215210 197.017044,261.654297 
	C195.428391,261.432434 193.858185,260.861542 192.118622,259.964081 
	C192.011780,259.084900 192.074295,258.532318 192.174622,257.704285 
z"/>
<path fill="#836F3C" opacity="1.000000" stroke="none" 
	d="
M233.683868,230.890808 
	C235.480133,230.344574 237.349976,230.133545 239.679810,230.028320 
	C238.512192,233.419739 236.428009,234.036591 233.683868,230.890808 
z"/>
<path fill="#5E5130" opacity="1.000000" stroke="none" 
	d="
M268.341492,236.005234 
	C267.230255,235.035233 266.454407,234.018021 265.445068,232.755753 
	C265.517914,232.073105 265.824249,231.635498 266.130585,231.197906 
	C266.609894,230.913651 267.089172,230.629379 268.017853,230.212479 
	C268.648376,230.122833 268.829468,230.165833 269.010590,230.208832 
	C269.494354,231.125320 269.978119,232.041809 270.809753,233.021820 
	C270.330688,234.042908 269.503784,235.000458 268.341492,236.005234 
z"/>
<path fill="#6F5F36" opacity="1.000000" stroke="none" 
	d="
M238.048172,143.563263 
	C239.269653,142.052887 240.822891,140.691498 242.697433,139.582748 
	C243.009003,140.207062 242.999252,140.578735 242.989517,140.950409 
	C241.452988,141.871033 239.916443,142.791641 238.048172,143.563263 
z"/>
<path fill="#AB8F45" opacity="1.000000" stroke="none" 
	d="
M287.610962,222.865738 
	C286.498444,222.840775 285.591125,222.822739 284.257324,222.663940 
	C284.993103,221.127914 286.155365,219.732666 287.493896,217.994873 
	C288.065674,219.145569 288.461151,220.638809 288.745575,222.491104 
	C288.362122,222.872589 288.089325,222.880081 287.610962,222.865738 
z"/>
<path fill="#AB8F45" opacity="1.000000" stroke="none" 
	d="
M265.757202,231.136749 
	C265.824249,231.635498 265.517914,232.073105 265.065674,232.738327 
	C263.465088,233.727707 262.010437,234.489456 260.290283,235.145050 
	C261.811157,233.717773 263.597473,232.396683 265.757202,231.136749 
z"/>
<path fill="#B79945" opacity="1.000000" stroke="none" 
	d="
M293.741882,215.919586 
	C290.280884,213.180008 292.497040,211.515228 295.669983,210.029602 
	C295.306274,211.882172 294.569977,213.708282 293.741882,215.919586 
z"/>
<path fill="#806D3C" opacity="1.000000" stroke="none" 
	d="
M270.845337,134.717926 
	C270.117981,134.771072 269.391571,134.483398 268.394012,134.074951 
	C267.496490,133.497009 266.870117,133.039841 266.106262,132.035919 
	C265.954803,131.074722 265.940796,130.660278 265.926819,130.245850 
	C267.566650,131.622940 269.206482,133.000015 270.845337,134.717926 
z"/>
<path fill="#AB8F45" opacity="1.000000" stroke="none" 
	d="
M269.322510,230.014008 
	C268.829468,230.165833 268.648376,230.122833 268.199524,229.999084 
	C269.800385,228.675797 271.669037,227.433273 273.903381,226.268738 
	C272.724182,227.504196 271.179291,228.661697 269.322510,230.014008 
z"/>
<path fill="#BA9B47" opacity="1.000000" stroke="none" 
	d="
M268.949524,184.581650 
	C270.760345,184.679733 272.688324,185.087204 274.804932,185.816467 
	C273.017944,185.722519 271.042328,185.306778 268.949524,184.581650 
z"/>
<path fill="#AB8F45" opacity="1.000000" stroke="none" 
	d="
M257.988098,235.452484 
	C257.953339,236.230667 257.572754,236.872406 257.098755,237.783829 
	C255.547928,238.690887 254.090591,239.328293 252.288406,239.950317 
	C253.843155,238.395325 255.742722,236.855698 257.988098,235.452484 
z"/>
<path fill="#836F3C" opacity="1.000000" stroke="none" 
	d="
M198.177917,251.854095 
	C196.994507,251.724411 196.098984,251.418869 195.042007,250.776581 
	C195.715851,249.982956 196.551117,249.526062 197.386383,249.069168 
	C197.746185,249.938858 198.105988,250.808563 198.177917,251.854095 
z"/>
<path fill="#967F41" opacity="1.000000" stroke="none" 
	d="
M346.594910,249.965836 
	C345.995239,251.351868 345.050049,252.770065 343.783447,254.246979 
	C344.391144,252.869781 345.320251,251.433899 346.594910,249.965836 
z"/>
<path fill="#AB8F45" opacity="1.000000" stroke="none" 
	d="
M232.735214,255.081238 
	C231.957825,256.395355 230.830505,257.712524 229.347687,259.013245 
	C230.123215,257.692627 231.254257,256.388458 232.735214,255.081238 
z"/>
<path fill="#7E6B3B" opacity="1.000000" stroke="none" 
	d="
M305.377075,216.039185 
	C306.353394,216.085922 307.017578,216.170090 308.115845,216.517731 
	C308.492462,217.079712 308.386261,217.359787 308.133606,217.827271 
	C306.763580,218.015091 305.491241,217.997040 304.218933,217.979004 
	C304.500916,217.344879 304.782928,216.710770 305.377075,216.039185 
z"/>
<path fill="#8D773E" opacity="1.000000" stroke="none" 
	d="
M219.236206,192.769379 
	C218.766357,191.848251 218.521469,190.691452 218.490250,189.300339 
	C218.956329,190.221924 219.208740,191.377823 219.236206,192.769379 
z"/>
<path fill="#8D773E" opacity="1.000000" stroke="none" 
	d="
M224.134399,212.211288 
	C223.959869,211.598007 223.965607,211.133835 223.993195,210.322083 
	C224.775299,210.011993 225.535568,210.049454 226.678452,210.061249 
	C227.076523,210.767654 227.091995,211.499725 226.682831,212.601440 
	C225.806335,213.009506 225.354492,213.047897 224.902649,213.086288 
	C224.735458,212.820984 224.539474,212.579025 224.134399,212.211288 
z"/>
<path fill="#836F3C" opacity="1.000000" stroke="none" 
	d="
M295.757202,204.278198 
	C294.894043,205.183212 293.690460,206.053635 292.130005,206.889908 
	C292.987671,205.985046 294.202240,205.114319 295.757202,204.278198 
z"/>
<path fill="#8D773E" opacity="1.000000" stroke="none" 
	d="
M232.701248,197.059128 
	C232.426254,198.121780 231.796600,199.210510 230.827805,200.339767 
	C231.107971,199.281937 231.727280,198.183578 232.701248,197.059128 
z"/>
<path fill="#8D773E" opacity="1.000000" stroke="none" 
	d="
M216.462616,271.855164 
	C216.027084,272.794495 215.243301,273.757294 214.136810,274.767273 
	C214.580856,273.835815 215.347610,272.857208 216.462616,271.855164 
z"/>
<path fill="#806D3C" opacity="1.000000" stroke="none" 
	d="
M243.340286,140.952271 
	C242.999252,140.578735 243.009003,140.207062 243.033905,139.559097 
	C243.743896,139.076401 244.438721,138.869995 245.489899,138.751495 
	C245.127853,139.544327 244.409454,140.249237 243.340286,140.952271 
z"/>
<path fill="#8F793F" opacity="1.000000" stroke="none" 
	d="
M266.161011,250.473099 
	C266.738861,249.801010 267.489166,249.421616 268.589417,249.054535 
	C268.953491,249.492722 268.967651,249.918594 268.996643,250.664139 
	C268.118835,250.911133 267.226166,250.838455 266.161011,250.473099 
z"/>
<path fill="#836F3C" opacity="1.000000" stroke="none" 
	d="
M211.639160,188.854065 
	C212.097519,188.440430 212.593735,188.345276 213.454132,188.383331 
	C213.901077,189.093704 213.983826,189.670868 214.080963,190.543610 
	C213.289246,190.283646 212.483124,189.728088 211.639160,188.854065 
z"/>
<path fill="#B79945" opacity="1.000000" stroke="none" 
	d="
M249.921509,213.412308 
	C249.707092,214.292160 249.144745,215.046753 248.308350,215.914825 
	C248.547379,215.114563 249.060486,214.200806 249.921509,213.412308 
z"/>
<path fill="#B79945" opacity="1.000000" stroke="none" 
	d="
M254.334167,215.945770 
	C254.475693,215.079941 254.957260,214.163788 255.753723,213.156830 
	C255.603806,214.009140 255.139008,214.952286 254.334167,215.945770 
z"/>
<path fill="#BA9B47" opacity="1.000000" stroke="none" 
	d="
M247.466492,190.106537 
	C247.865524,189.418854 248.606598,188.716385 249.670517,188.001923 
	C249.265076,188.690536 248.536789,189.391159 247.466492,190.106537 
z"/>
<path fill="#836F3C" opacity="1.000000" stroke="none" 
	d="
M295.339081,220.604401 
	C295.206818,220.904465 295.008881,220.928528 294.514954,220.971924 
	C293.697418,220.781311 293.175842,220.571350 292.654266,220.361389 
	C293.034760,219.930603 293.415253,219.499817 294.109833,219.007019 
	C294.707092,219.406143 294.990234,219.867279 295.339081,220.604401 
z"/>
<path fill="#836F3C" opacity="1.000000" stroke="none" 
	d="
M217.762848,208.174057 
	C218.220276,208.588257 218.506744,209.193558 218.689041,210.149323 
	C218.253876,209.788223 217.922882,209.076706 217.762848,208.174057 
z"/>
<path fill="#836F3C" opacity="1.000000" stroke="none" 
	d="
M219.275726,213.210663 
	C219.712250,212.924316 220.106171,212.954178 220.798370,212.999359 
	C221.131516,213.467285 221.166367,213.919922 221.099640,214.698685 
	C220.409729,214.525497 219.821426,214.026184 219.275726,213.210663 
z"/>
<path fill="#836F3C" opacity="1.000000" stroke="none" 
	d="
M305.767670,196.790771 
	C306.194000,196.129501 306.762939,195.600540 307.620544,194.990372 
	C307.909149,194.909180 308.148956,195.150269 308.110016,195.517303 
	C307.444824,196.319901 306.818542,196.755447 306.192291,197.190994 
	C306.192291,197.190994 305.910278,196.923065 305.767670,196.790771 
z"/>
<path fill="#AB8F45" opacity="1.000000" stroke="none" 
	d="
M199.863037,255.343170 
	C199.694992,255.870758 199.237701,256.235199 198.780396,256.599670 
	C198.569244,256.199677 198.358078,255.799713 198.232605,255.098114 
	C198.736786,254.924347 199.155273,255.052185 199.863037,255.343170 
z"/>
<path fill="#584D30" opacity="1.000000" stroke="none" 
	d="
M265.598572,130.162262 
	C265.940796,130.660278 265.954803,131.074722 265.935059,131.799927 
	C265.293518,131.665329 264.685760,131.219971 264.005920,130.482712 
	C264.379364,130.153442 264.824860,130.116074 265.598572,130.162262 
z"/>
<path fill="#836F3C" opacity="1.000000" stroke="none" 
	d="
M221.640228,217.904816 
	C222.315445,218.121521 222.804337,218.644836 223.268829,219.452988 
	C222.647583,219.229019 222.050720,218.720230 221.640228,217.904816 
z"/>
<path fill="#BA9B47" opacity="1.000000" stroke="none" 
	d="
M237.144104,191.332977 
	C237.072296,192.093185 236.599777,192.756104 235.826569,193.511200 
	C235.931732,192.814163 236.337555,192.024933 237.144104,191.332977 
z"/>
<path fill="#806D3C" opacity="1.000000" stroke="none" 
	d="
M267.656921,136.999649 
	C268.021790,137.468796 268.041321,137.873856 268.066620,138.583038 
	C267.377167,138.488785 266.681915,138.090378 265.957886,137.371216 
	C266.389923,137.012146 266.850800,136.973846 267.656921,136.999649 
z"/>
<path fill="#836F3C" opacity="1.000000" stroke="none" 
	d="
M230.071518,229.154205 
	C230.691620,229.028061 231.255768,229.195908 231.920288,229.656845 
	C231.352280,229.782684 230.683929,229.615433 230.071518,229.154205 
z"/>
<path fill="#BFA048" opacity="1.000000" stroke="none" 
	d="
M230.304871,276.940125 
	C230.330765,276.299347 230.697815,275.632477 231.339935,274.852905 
	C231.291992,275.464813 230.969009,276.189423 230.304871,276.940125 
z"/>
<path fill="#806D3C" opacity="1.000000" stroke="none" 
	d="
M268.122101,139.251038 
	C268.717529,139.449768 269.320648,139.968353 269.917542,140.817520 
	C269.317505,140.622375 268.723633,140.096649 268.122101,139.251038 
z"/>
<path fill="#AB8F45" opacity="1.000000" stroke="none" 
	d="
M207.824020,252.300690 
	C207.611343,252.904877 207.081161,253.429352 206.243134,253.953522 
	C206.459030,253.375793 206.982773,252.798386 207.824020,252.300690 
z"/>
<path fill="#F8CE4B" opacity="1.000000" stroke="none" 
	d="
M294.979431,366.486847 
	C293.407898,364.960419 291.222626,363.472137 291.173248,361.916107 
	C290.857941,351.980591 291.012573,342.030151 291.012573,332.119263 
	C299.020081,331.456848 303.486145,333.879242 304.947083,341.130829 
	C305.994995,346.332275 305.833862,351.986023 305.089172,357.280029 
	C304.372559,362.374603 300.889557,365.838684 294.979431,366.486847 
z"/>
<path fill="#F9CE4B" opacity="1.000000" stroke="none" 
	d="
M291.000916,301.048828 
	C291.000916,298.087067 291.000916,295.617004 291.000916,293.179749 
	C298.942200,292.475891 303.182159,296.125793 304.055939,304.057312 
	C305.423096,316.466766 301.016174,323.814667 291.000916,323.605682 
	C291.000916,316.276367 291.000916,308.908447 291.000916,301.048828 
z"/>
<path fill="#695A35" opacity="1.000000" stroke="none" 
	d="
M232.687622,141.051193 
	C233.637070,141.792709 234.208420,142.562744 234.915100,143.589188 
	C230.124023,144.838043 225.199066,145.837997 220.265213,146.791946 
	C220.091095,146.825607 219.828720,146.402740 219.021103,145.635880 
	C223.671997,144.041229 227.990753,142.560471 232.687622,141.051193 
z"/>
<path fill="#584D30" opacity="1.000000" stroke="none" 
	d="
M320.731689,263.106537 
	C321.134003,263.839661 321.120850,264.483124 321.139862,265.445587 
	C319.233002,265.421539 317.293945,265.078491 315.354889,264.735443 
	C315.380829,264.244751 315.406799,263.754059 315.432739,263.263336 
	C317.060577,263.181183 318.688385,263.098999 320.731689,263.106537 
z"/>
<path fill="#5E5130" opacity="1.000000" stroke="none" 
	d="
M224.956711,213.377563 
	C225.354492,213.047897 225.806335,213.009506 226.597122,212.962433 
	C226.294296,213.192139 225.652527,213.430496 224.956711,213.377563 
z"/>
<path fill="#262318" opacity="1.000000" stroke="none" 
	d="
M201.836761,294.118561 
	C202.489822,292.514404 202.715973,291.040710 203.549164,290.111023 
	C204.330917,289.238739 205.754593,288.941742 206.895813,288.391602 
	C207.418991,289.916809 208.819183,291.912476 208.300751,292.878906 
	C206.749680,295.770355 204.447784,298.259033 201.265930,300.963440 
	C201.402237,298.804474 201.538544,296.645538 201.836761,294.118561 
z"/>
<path fill="#FAD04C" opacity="1.000000" stroke="none" 
	d="
M225.832947,274.772766 
	C223.871140,278.212463 221.694443,281.380066 218.874802,284.773041 
	C217.471451,285.001434 216.711029,285.004456 215.950623,285.007446 
	C216.445206,283.191132 216.939804,281.374786 217.770813,279.436127 
	C219.720047,278.049133 221.284424,276.714355 222.967590,275.551483 
	C223.729431,275.025146 224.727264,274.840393 225.832947,274.772766 
z"/>
<path fill="#CFAC49" opacity="1.000000" stroke="none" 
	d="
M215.908875,285.391968 
	C216.711029,285.004456 217.471451,285.001434 218.611984,284.995789 
	C218.750977,285.532349 218.509842,286.071564 218.250732,286.908112 
	C217.444199,286.729156 216.655670,286.252838 215.908875,285.391968 
z"/>
<path fill="#342F1F" opacity="1.000000" stroke="none" 
	d="
M318.124695,196.547577 
	C319.922241,195.178391 321.595520,194.105499 323.268799,193.032623 
	C323.691559,193.381531 324.114319,193.730438 324.537079,194.079346 
	C322.293396,197.397842 320.049713,200.716339 317.375366,204.501358 
	C315.278473,205.665329 313.612183,206.362778 311.945923,207.060242 
	C311.945923,207.060242 311.783234,206.589539 311.712524,206.128677 
	C311.487183,205.319702 311.228394,205.203964 310.865479,205.320618 
	C311.588928,203.935959 312.312408,202.551315 313.321198,200.696411 
	C314.093536,199.846542 314.580566,199.466934 315.067596,199.087326 
	C316.045197,198.339508 317.022797,197.591705 318.124695,196.547577 
z"/>
<path fill="#373121" opacity="1.000000" stroke="none" 
	d="
M306.102020,197.454391 
	C306.818542,196.755447 307.444824,196.319901 308.229858,195.637909 
	C309.957062,195.897888 310.765747,190.805847 312.691315,195.055267 
	C310.300812,197.621460 308.025330,199.924362 305.375153,201.828842 
	C305.010803,200.629532 305.021179,199.828644 305.031525,199.027771 
	C305.358276,198.591110 305.684998,198.154449 306.102020,197.454391 
z"/>
<path fill="#7E6B3B" opacity="1.000000" stroke="none" 
	d="
M311.904297,207.310989 
	C313.612183,206.362778 315.278473,205.665329 317.247131,204.827667 
	C317.651855,204.985016 317.754120,205.282593 317.952393,206.047241 
	C318.552979,208.472244 319.057495,210.430161 319.779114,212.675232 
	C318.536346,212.977966 317.076508,212.993546 315.259766,212.959763 
	C314.099426,211.558762 313.295990,210.207123 312.122528,208.709656 
	C311.789246,208.229782 311.825989,207.895767 311.904297,207.310989 
z"/>
<path fill="#5B4F30" opacity="1.000000" stroke="none" 
	d="
M304.724426,199.160294 
	C305.021179,199.828644 305.010803,200.629532 304.998810,201.834518 
	C304.223236,202.524490 303.449341,202.810364 302.351379,203.080231 
	C302.824005,201.807098 303.620667,200.549957 304.724426,199.160294 
z"/>
<path fill="#FAD04C" opacity="1.000000" stroke="none" 
	d="
M314.927307,198.789062 
	C314.580566,199.466934 314.093536,199.846542 313.323486,200.361267 
	C313.132263,199.584610 313.224060,198.672836 313.315857,197.761047 
	C313.806244,198.004288 314.296600,198.247543 314.927307,198.789062 
z"/>
<path fill="#836F3C" opacity="1.000000" stroke="none" 
	d="
M310.945007,205.488617 
	C311.228394,205.203964 311.487183,205.319702 311.613068,205.900360 
	C311.355133,206.024185 311.168549,205.865417 310.945007,205.488617 
z"/>
<path fill="#181610" opacity="1.000000" stroke="none" 
	d="
M248.248230,221.469025 
	C247.897888,221.309799 247.708130,221.084595 247.518372,220.859390 
	C247.746124,220.834473 247.973877,220.809555 248.373123,220.934082 
	C248.544617,221.083511 248.408798,221.403061 248.248230,221.469025 
z"/>
<path fill="#5E5130" opacity="1.000000" stroke="none" 
	d="
M244.014465,186.454529 
	C244.762619,186.028336 245.501297,185.965179 246.609161,185.863037 
	C246.645691,186.949265 246.313034,188.074509 245.941467,189.547394 
	C245.270020,188.869217 244.637482,187.843399 244.014465,186.454529 
z"/>
<path fill="#726237" opacity="1.000000" stroke="none" 
	d="
M195.992538,257.674103 
	C195.429306,257.878601 194.864700,257.722260 194.150665,257.307922 
	C194.444595,256.696320 194.887924,256.342712 195.630173,255.929550 
	C195.949768,256.351074 195.970459,256.832184 195.992538,257.674103 
z"/>
<path fill="#5E5130" opacity="1.000000" stroke="none" 
	d="
M264.842285,238.639160 
	C264.699554,238.037247 264.620972,237.077377 264.898865,236.126923 
	C265.139038,236.851303 265.022736,237.566269 264.842285,238.639160 
z"/>
<path fill="#5E5130" opacity="1.000000" stroke="none" 
	d="
M259.132874,240.278137 
	C259.526062,239.853607 260.076599,239.651047 260.781677,239.651413 
	C260.387573,240.069611 259.838928,240.284866 259.132874,240.278137 
z"/>
</svg>